<?xml version="1.0" encoding="UTF-8"?><svg id="Layer_1" xmlns="http://www.w3.org/2000/svg" viewBox="0 0 796.51 881.11"><defs><style>.cls-1{fill:#000;}.cls-1,.cls-2{stroke-width:0px;}.cls-2{fill:#fff;}</style></defs><path class="cls-1" d="M764.62,643.35c10.26-15.21,20.53-30.42,30.82-45.67,3.05,7.5-.72,23.47-7.15,28.67-6.55,5.3-13.69,9.89-20.12,15.33-2.96,2.5-5.27,6.05-7.11,9.52-4.42,8.35-8.42,16.93-12.52,25.45-.45.94-.48,2.08-.71,3.13-3.38-3.84-6.59-7.63-9.98-11.26-1.78-1.91-3.74-3.42-6.22-.51-1.95,2.29-3.36,4.49-.39,6.71,7.43,5.54,8.16,13.12,8.12,21.7-.26,49.16-.07,98.33-.1,147.5,0,7.11-3,13.01-8.7,17.14-8.05,5.83-16.85,8.86-27.17,7.28-22.53-3.43-45.1-6.62-67.7-9.48-19.63-2.48-39.31-4.72-59.02-6.43-29.49-2.56-59-5.15-88.55-6.69-45.76-2.39-91.57-3.49-137.4-1.58-19.29.8-38.61,1.16-57.88,2.26-21.61,1.23-43.22,2.67-64.76,4.74-31.96,3.08-63.87,6.61-95.77,10.31-17.84,2.07-35.61,4.74-53.37,7.37-13.39,1.98-24.33-3.4-33.52-12-3.17-2.97-4.86-8.98-4.89-13.62-.33-51.66-.27-103.33-.04-154.99.01-3.09,2.22-6.3,3.82-9.22.93-1.69,2.66-2.96,4.1-4.34,2.42-2.31,2.26-4.41.01-6.86-2.29-2.49-4.27-1.45-5.99.28-2.8,2.82-5.33,5.91-7.97,8.89-.44-.24-.89-.48-1.33-.72-.11-1.89-.18-3.79-.36-5.68-.17-1.81-.14-3.72-.73-5.4-2.5-7.12-5.12-14.21-7.89-21.23-.64-1.62-1.75-3.34-3.13-4.33-8.2-5.89-14.03-13.67-18.07-22.73-1.82-4.08-2.65-8.59-2.96-13.24,9.05,13.52,18.09,27.03,27.14,40.55.38-.2.76-.41,1.14-.61-3.18-6.94-6.33-13.91-9.55-20.83-4.08-8.75-8.14-17.51-12.39-26.17-1.54-3.13-1.22-5.75.95-8.28,5.98-6.98,11.8-14.18,21.95-15.16,1.13-.11,2.53-.42,3.25-1.17,8.97-9.38,21.59-10.59,32.91-14.48,10.83-3.72,22.11-6.11,33.14-9.27,1.8-.52,3.49-1.78,4.95-3.04,6.04-5.21,11.76-10.8,17.99-15.77,5.28-4.21,5.51-3.91,1.86-10.03-11.13-18.72-17.02-38.93-17.42-60.73-.35-19.07,4.47-37.24,9.77-55.3.79-2.71.28-4.23-1.31-6.59-4.5-6.69-8.27-13.87-12.32-20.87-.91-1.57-1.39-3.56-2.66-4.71-14.29-12.92-18.65-30.38-21.9-48.2-3.18-17.38-5.05-34.89-3.25-52.66,1.29-12.78,4.98-24.44,13.86-33.99,2-2.14,4.72-3.6,7-5.5,1.54-1.29,2.81-2.92,4.36-4.19,1.46-1.19,3.11-2.91,4.75-3,3.85-.21,4.53-2.51,5.01-5.51,4.23-26.24,12.77-50.94,26.66-73.67,2.13-3.49,3.46-8.24,9.09-8.11.59.01,1.32-1.36,1.81-2.19,21.68-37.05,50.41-67.58,86.81-90.2,30.38-18.87,63.78-30.67,98.91-37.65C357.09,1.44,381.89-.65,406.93.17c57.66,1.89,110.92,18.26,158.35,51.12,31.38,21.74,56.9,49.6,76.84,82.37.79,1.3,2.6,1.99,3.93,2.95,1.02.73,2.36,1.24,3.04,2.21,16.99,23.98,26.11,51.06,31.02,79.73.53,3.11,1.31,4.57,4.7,5.09,1.98.3,3.68,2.61,5.42,4.12.69.6.97,1.82,1.71,2.19,14.93,7.39,20.51,20.65,22.36,36.03,3.38,27.94-.72,55.21-9.47,81.63-2.61,7.89-9.07,14.5-13.76,21.71-1.43,2.2-2.94,4.36-4.22,6.65-3.78,6.77-7.23,13.74-11.31,20.33-1.57,2.53-1.98,4.17-.88,7.09,5.54,14.6,10.67,29.34,15.93,44.04.22.62.61,1.34.48,1.92-1.82,8.19,3.91,11.39,9.35,15.46,11.2,8.39,20.23,18.59,20.79,33.6.64,17.25-10.17,31.2-28.4,37.2-3.31,1.09-6.7,1.98-10.77,3.17,4.43,4.06,6.55,8.86,13.77,10.12,20.32,3.53,40.26,9.19,58.9,18.3,4.99,2.44,9.77,4.92,15.15,6.61,8.02,2.53,12.63,9.52,16.98,16.24.78,1.2.01,3.87-.76,5.52-6.62,14-13.41,27.91-20.13,41.85-.84,1.75-1.61,3.53-2.41,5.3l1.06.65ZM543.39,341.47c10.13-3.24,15.35-15.45,15.79-29.29-1.45,11.88-6.48,21.79-15.7,29.39-7.51,2.27-15.02,4.54-22.53,6.81.24.64.48,1.29.72,1.93,7.24-2.95,14.48-5.9,21.72-8.85ZM287.36,632.91c.46.8.75,1.8,1.41,2.36,3.8,3.23,7.75,6.28,11.53,9.54,3.8,3.29,7.46,6.75,11.18,10.13.1-.14.19-.28.29-.42-14.66-18.27-29.31-36.53-43.97-54.8-.57.39-1.15.79-1.72,1.18,2.83,6.12,5.65,12.24,8.48,18.37-.34-.23-.68-.47-1.03-.67-.04-.02-.32.22-.32.33-.03,3.65,9.55,14.07,13.36,14.49.25.03.54-.33.81-.5ZM124.32,211.14c1.43-9.07,2.86-18.14,4.17-26.4-4.03,9.14-8.5,32.36-6.7,36.8.92-3.7,1.78-7.14,2.64-10.57,1.38.56,3.04,1.9,4.07,1.52,1.84-.68,4.27-2.1,4.76-3.72,3.07-10.12,5.63-20.39,8.45-30.59,1.33-4.83-.3-9.03-5.46-12.28-4.01,15.21-7.96,30.22-11.93,45.24ZM231.65,393.56c2.7-8.66,5.39-17.32,8.16-26.2-1.52.3-2.79.56-4.11.82.09-1.26.14-2.01.19-2.76-.28-.07-.55-.14-.83-.21-2.84,4.89-5.69,9.79-8.53,14.68-.22-.11-.45-.22-.67-.32,1.62-4.96,3.24-9.92,5.37-16.42-2.68,2.08-4.18,3.25-5.68,4.41-.32-.18-.65-.37-.97-.55,1.82-5.14,3.63-10.29,5.45-15.43-22.48,28.67-23.53,34.05-27.93,56.79,5.06-5.69,10.27-11.55,15.48-17.41-3.33,10.73-10.89,19.17-11.27,31.18-.54,17.28-.08,25.92,4.75,31.59-2.98-24.09-1.43-36.11,5.71-43.3-.22,1.23-.4,2.28-.57,3.26,4.45-5.75,8.81-11.39,13.17-17.03-2.81,6.92-6.05,13.7-8.29,20.79-2.28,7.22-2.31,14.75.15,22.19.18-1.35.36-2.69.64-4.75,4.68,19.77,11.78,37.51,25.34,52.11-2.05-8.65-5.17-16.95-7.2-25.5-2.09-8.78-3.12-17.81-4.61-26.74.44-.07.89-.15,1.33-.22,2.31,14.36,6.99,26.96,10.79,29.86.26-3.53.31-7.38.89-11.14.51-3.36,1.6-6.64,2.43-9.96.3.12.61.25.91.37.62,3.95,1.23,7.89,1.85,11.84.41,0,.82-.02,1.22-.03.64-1.25,1.27-2.49,2.12-4.14,2.49,7.38,4.7,14.29,7.2,21.09,1.01,2.75,3.19,5.13,3.93,7.92.96,3.61.58,3.72,4.42,3.71-6.47-17.39-10.35-35.09-7.24-53.66,4.61,23.3,5.09,24.6,11.69,30.21-1.97-22.13,4.11-42.63,12.54-62.69-.46-.13-.93-.25-1.39-.38-1.07,1.32-2.14,2.65-3.21,3.97-.18-.12-.35-.24-.53-.35,1.78-4.06,3.57-8.12,5.35-12.18-.82-.54-1.63-1.09-2.45-1.63-.99,1.8-1.97,3.59-2.96,5.39-.28-.24-.57-.48-.85-.72.41-1.5.82-3,1.22-4.5-.21-.12-.43-.23-.64-.35-3.15,4.54-6.29,9.08-9.44,13.63-.1-.02-.19-.04-.29-.07,2.76-6.15,5.52-12.31,8.28-18.46-.5-.25-1.01-.51-1.51-.76-2.49,2.67-4.99,5.35-7.48,8.02-.2-.17-.4-.34-.6-.51,1.17-2.31,2.34-4.62,3.51-6.93-.29-.45-.58-.9-.88-1.35-1.91.95-3.82,1.91-5.57,2.78-.82-.43-2.28-1.78-3.03-1.46-1.41.61-2.43,2.15-3.56,3.35-.88.94-1.69,1.96-2.53,2.94-.22-.16-.44-.32-.66-.48,2.41-4.43,4.82-8.86,7.23-13.29-8.38,9.18-8.6,9.3-12.31,6.09-.75,1.25-1.49,2.5-2.61,4.38.4-7.83.75-14.74,1.1-21.65-.66-.21-1.32-.42-1.97-.63-4.95,7.04-10.01,14-14.81,21.15-2.03,3.02-3.5,6.4-5.22,9.62ZM529.37,165.71c3.08,1.61,6.93,2.52,9.1,4.94,12.45,13.87,24.58,28.03,36.65,42.24,4.11,4.83,7.72,10.09,11.56,15.15.14-1.36-.31-2.37-.82-3.34-9.44-17.92-21.27-34.15-34.33-49.59-7.95-9.4-15.16-19.44-22.66-29.23-.51-.67-.63-1.63-1.31-3.47,7.37,6.23,13.85,11.72,20.33,17.2l2.24-2.37c-5.4-4.61-10.79-9.22-16.19-13.83.25-.23.49-.46.74-.69,3.84,3.26,7.68,6.52,12.26,10.41-.82-2.12-1.25-3.24-2.09-5.43,4.51,4.36,8.09,7.82,11.68,11.29.3-.25.6-.5.91-.74l-20.91-25.74c.12-.08.23-.17.35-.25,6.38,5.31,12.76,10.62,19.14,15.93.55-.52,1.09-1.04,1.64-1.56-3.8-4.86-7.32-9.96-11.47-14.5-3.22-3.51-7.44-6.09-10.82-9.48-9.21-9.25-18.22-18.68-27.26-28.1-2.15-2.24-3.76-5.11-6.15-7.01-19.63-15.56-42.07-25.71-65.87-32.84-16.86-5.05-34.2-6.83-51.87-5.42-18.77,1.5-36.73,6.53-54.39,12.45-27.16,9.1-52.27,22.56-75.84,38.79-17.58,12.1-30.65,28.54-42.3,46.1-5.82,8.79-10.85,18.1-16.23,27.18.56.5,1.12,1,1.68,1.5,30.22-51.07,73.39-86.77,127.45-109.52-.1.62-.43,1-.84,1.21-9.07,4.56-18.62,8.37-27.08,13.87-8.3,5.4-15.49,12.52-23.15,18.91-.61.51-1.02,1.27-1.56,1.87-3.46,3.87-6.72,7.95-10.45,11.55-6.44,6.23-13.17,12.17-19.79,18.21-2.26,2.06-4.03,4.23-2.7,7.45,1.84-1.28,3.49-2.42,5.14-3.57.21.24.43.48.64.73-4.53,5.53-9.06,11.07-13.59,16.6.56.48,1.12.96,1.68,1.44,4.67-5.02,9.34-10.05,14.02-15.07.43.38.85.76,1.28,1.15-5.24,6.37-10.47,12.74-15.71,19.11.29.28.57.56.86.84,3.35-2.96,6.71-5.91,10.06-8.87.2.19.4.37.6.56-1.72,1.94-3.43,3.87-5.15,5.81,7.23-3.5,13.81-7.78,20.46-11.93,1.19-.74,2.71-.93,4.08-1.38-.54,1.39-.74,3.07-1.66,4.14-10.98,12.73-21.91,25.51-33.16,37.99-11.81,13.1-19.45,28.72-27.91,43.88,8.32-10.32,16.27-20.92,24.79-31.04,8.57-10.18,17.46-20.13,26.67-29.73,8.98-9.37,18.54-18.19,27.84-27.25-13.22,16.61-27.71,32.08-38.75,50.37,6.92-4.32,13.19-9.68,19.24-14.68,17.9-14.8,33.11-32.81,52.53-45.96,11.14-7.54,22.64-14.55,34.07-21.66,1.56-.97,3.62-1.15,5.45-1.69.43.7.86,1.4,1.3,2.1-.9.37-1.83.69-2.7,1.13-5.05,2.56-10.33,4.75-15.07,7.79-22.84,14.61-43.39,32.07-61.77,51.94-12.31,13.31-23.86,27.33-35.53,41.22-17.05,20.29-33.05,41.37-46.55,64.23-14.57,24.68-24.53,51.35-33.64,78.39-2.86,8.5-5.33,17.28-9.41,25.19-3.74,7.25-4.49,15.89-11.93,21.76-4.01,3.16-4.38,10.55-7.45,15.36-8.5,13.35-11.55,28.32-10.73,43.41,1.21,22.26,7.99,42.92,24.84,59.06,6.06,5.8,11.55,12.21,17.36,18.28,1.01,1.06,2.22,2.02,3.51,2.71,2.8,1.49,5.85,2.57,8.55,4.22,2.23,1.35,4.01,3.41,6.16,4.92,15.94,11.13,32.21,21.82,47.78,33.44,8.16,6.09,15.78,13.32,19.24,23.5,2.14,6.29,3.89,12.7,5.76,19.08.25.85.5,2.46.19,2.61-3.58,1.81-.93,4.05-.57,6.12.32,1.79.83,3.57.91,5.37.29,5.83.42,11.66.61,17.49.67.01,1.33.02,2,.03.19-1.51.51-3.02.55-4.53.2-6.33.2-12.66.47-18.99,1.32-30.21-8.13-54.59-35.63-70.64-17.99-10.5-35.22-22.37-52.44-34.12-15.76-10.75-24.93-26.43-30.89-44.22-3.25-9.68-6.15-19.38-4.89-29.78,1.37-11.35,5.13-21.95,9.71-32.37,7.57-17.21,15.18-34.42,22.02-51.93,3.82-9.8,6.1-20.19,9.29-31.03-2.19,1.85-3.61,3.05-5.02,4.25l.07.05c1.16-2.17,2.55-4.25,3.45-6.52,13.96-35.24,32.28-67.93,56.82-96.95,4.99-5.89,10.63-11.23,15.59-17.15,4.14-4.94,7.33-10.69,11.61-15.49,9.63-10.8,19.6-21.3,29.58-31.78,6.88-7.23,13.57-14.75,21.14-21.2,7.41-6.3,12.35-15.39,23.47-17.85,6.07-1.35,11.09-7.42,16.66-11.41-1.16-.36-2.41-.73-3.65-1.11-.17-.54-.33-1.09-.5-1.63,12.27-5.76,24.47-11.69,36.96-16.95.93-.39,3.94.63,5.73-.52,7.47-4.8,14.99-4.93,22.88-1.01,3.1,1.55,6.54,2.4,9.8,3.66,20.65,8,38.32,20.65,54.13,35.84,16.15,15.53,32.09,31.32,47.44,47.65,11.36,12.08,22.01,24.89,32.25,37.95,12.22,15.56,25.1,30.87,35.16,47.8,23.41,39.41,40.34,81.98,57.08,124.54,1.12,2.85,1.83,5.87,2.73,8.81-.43.15-.85.3-1.28.46-8.04-18.32-16.08-36.65-24.12-54.97-.56,1.94-.39,3.71.16,5.35,2.39,7.09,4.56,14.28,7.42,21.18,8.65,20.9,18.14,41.46,26.23,62.56,7.71,20.11,16.37,40.33,11.27,63.4,2.64-1.05,5.78-2.15,6.48-4.11,5.34-14.97,9.32-30.32,7.13-46.4-.99-7.22-3.15-14.29-4.92-22.05-2.21,8.72-4.1,16.2-6,23.69-2.39-16.81-6.81-32.73-14.75-47.6-12.66-23.69-22.08-48.7-30.65-74.11-9.27-27.5-20.19-54.42-37.01-78.24-13.8-19.54-28.74-38.31-43.69-57.01-18.12-22.65-37.89-43.78-60.17-62.52-6.19-5.2-14.42-8.77-16.9-18.23,1.78,1.25,3.32,2.16,4.65,3.3,10.62,9.09,21.27,18.16,31.78,27.38,5.62,4.93,10.34,11.24,16.61,15,9.92,5.94,17.51,14.12,25.32,22.23.82.85.8,2.51,1.18,3.79.71-.68,1.42-1.36,2.14-2.04-1.11-6.45-5.65-10.81-9.64-15.57-3.03-3.62-5.71-7.52-8.55-11.3l-.21.17ZM381.94,455.33c-7.19.73-12.69-2.61-18.5-5.81-6.71-3.7-11.21-9.76-14.7-15.52-6.52-10.75-8.6-23.26-7.51-36.11,1.31-15.44,9.33-27.07,24.28-29.78,19.98-3.61,40.38-4.47,60.43.45,7.91,1.94,14.03,6.94,17.61,14.43,10.46,21.84,3.14,52.47-18.89,66.45-5.25,3.33-10.76,6.23-16.34,9.45.94.63,2.01,1.36,4.09,2.76-2.63-.49-4.05-.75-5.4-1q-4.24,7.3,8.07,15.31c-1.17.94-2.33,1.87-4.06,3.26,8.05,2.55,14.54,6.49,22.46,8.01,7.52,1.45,14.34,6.58,21.52,10.13-.58.46-1.38,1.09-3.26,2.57,5.28.3,9.99,1.95,13.3.47,7.82-3.49,14.1-9.54,15.79-18.37,1.15-6.03.75-12.36,1.06-18.74,1.21,2.87,2.34,5.55,3.99,9.49.98-10.62-2.99-19.76-.94-30.13,2.6,3.73,4.46,6.41,6.88,9.89-1.64-8.69-1.89-16.68-4.73-23.61-4.52-11.02-10.73-21.35-16.28-31.95-.83-1.59-1.92-3.04-2.89-4.55.41-.28.82-.56,1.23-.83,3.82,4.54,7.63,9.09,11.76,14-4.65-19.82-18.65-31.5-34.37-41.79.33-.41.67-.81,1-1.22,4.76,1.8,9.52,3.61,14.28,5.41,0-1.3-.34-1.89-.85-2.21-6.35-4.02-10.86-9.81-15.77-15.35-6.92-7.8-12.97-17.09-24.66-19.58,1.59-.37,3.17-.73,6.38-1.48-5.41-2.47-9.6-4.38-14.78-6.75,3.83.23,6.63.4,9.87.6-3.09-5.45-8.49-7.35-11.99-11.74-5.28-6.63-28.37-6.47-34.65,3.12.98-.11,1.83-.2,2.67-.29-.42.93-.6,2.2-1.32,2.7-1.33.94-3.05,1.32-4.49,2.14-2.59,1.47-5.1,3.1-7.64,4.66.24.37.48.73.71,1.1,3.34-.9,6.69-1.79,10.03-2.69.06.26.13.51.19.77-3.75,2.04-7.5,4.09-12.18,6.64,3.08.72,4.71,1.1,6.34,1.48-7.99,1.35-12.77,6.77-17.75,11.89-6.97,7.15-13.97,14.29-20.94,21.45-1.05,1.08-2.06,2.21-3.81,4.1q10.91-4.07,12.88-2.77c-22.52,15.37-20.17,13.39-29.8,36.09-.46,1.08-.62,2.3-.92,3.45,2.17-1.91,3.52-4.18,5.06-6.3,1.45-1.99,3.12-3.82,4.69-5.72.32.25.64.49.95.74-11.85,16.68-19.11,35.07-21.78,55.16.43.25.86.51,1.29.76,3.07-3.28,6.15-6.56,9.69-10.34-3.09,10.88-8.23,21.02-3.61,32.48.65-1.08,1.05-1.74,1.61-2.67,2.48,9.56,4.2,19.06,11.88,25.91,6.05,5.39,14.55,6.98,21.78,3.34,4.01-2.02,7.71-4.66,11.69-6.77,5.77-3.07,8.71-9.98,15.96-11.18,3.02-.5,5.99-2.15,8.62-3.84,4.35-2.78,8.68-8.03,6.66-13.54-.85-2.32-1.16-4.83-1.89-8.05ZM332.09,346.88l.21.34c2.16-2,4.8-3.67,6.4-6.05,5.47-8.11,11.31-16.09,15.62-24.81,5.59-11.31,10.08-23.19,14.58-35,1.72-4.5,4.03-6.7,8.94-6.63,10.99.16,21.99.08,32.98-.04,4.54-.05,7.46,1.46,8.75,6.22,1.17,4.31,3.12,8.42,4.71,12.62,6.24,16.57,13.02,32.83,24.93,46.35,1.23,1.4,2.25,2.99,3.37,4.5.37-.36.74-.73,1.11-1.09-2.62-4.66-7.5-8.28-7.31-14.61,1.85-.16,3.17-.36,4.48-.38,29.32-.44,58.64-.9,87.96-1.25,9.88-.12,10.4-2.67,11.82-9.44-.82-.08-1.62-.22-2.42-.22-34.32-.02-68.63.02-102.95-.15-2.49-.01-7.27,2.22-7.16-2.47.11-4.39,4.81-2.19,7.33-2.25,30.47-.82,60.95-1.4,91.43-2.09,1.78-.04,3.55-.53,5.32-.81-1.43-1.96-2.4-3.28-3.37-4.59,1.61-.85,3.14-2.13,4.84-2.44,2.35-.42,4.82-.11,7.69-.11v6.83l1.11.08c.43-2.81.87-5.63,1.39-9-14.81,0-29.1-.07-43.4.01-25.16.14-50.31.36-75.47.61-2.85.03-5.15-.14-4.25-4.96,38.64-.57,77.46-1.13,116.28-1.7-4.27-1.58-6.94-3.72-6.23-8.51h12.3v8.31c.48.1.96.21,1.44.31,2.14-3,1.75-6.68,1.62-10.69-1.79-.08-3.42-.22-5.04-.22-40.99-.02-81.98-.06-122.98.02-3.45,0-4.88-1.01-4.12-5.16,3.05,0,6.02.03,8.98,0,35.48-.4,70.97-.79,106.45-1.26,2.32-.03,4.63-.67,6.94-1.03.11-.57.22-1.14.33-1.71-2.36-1.55-4.71-3.1-7.07-4.65,4.36-.32,8.88-.66,13.4-.99l-.09-1.51H235.81c-.02.32-.04.63-.06.95,5.33.5,10.65,1,16.8,1.58-3.29.52-5.68.89-8.37,1.31.85,3.49,1.15,6.14,5.44,6.19,18.15.2,36.3.82,54.46,1.05,18.66.24,37.33.2,55.99.31,1.92.01,3.83.21,5.79.32.25,4.96-2.75,5.17-5.88,5.14-35.15-.24-70.31-.5-105.46-.73-7.3-.05-14.6,0-22.21,0,.4,2.04.94,3.5.91,4.94-.09,4.68,1.96,6.03,6.66,6.06,21.83.11,43.65.7,65.47,1.01,15.83.22,31.66.24,47.49.43,2.04.02,4.08.52,6.04.78.17,5.1-2.96,4.63-5.81,4.61-32.32-.26-64.64-.58-96.96-.73-6.87-.03-13.75.5-21.49.81,2.41,3.56.92,8.11,4.78,9,.49-2.87.43-7,1.39-7.25,2.61-.68,5.65.27,8.51.58-1.18,2.09-2.36,4.17-3.99,7.06,34.85.78,70.33,1.58,105.89,2.38.72,4.26-2.05,4.35-4.84,4.28-11.98-.27-23.97-.85-35.95-.79-21.98.11-43.97.59-65.95.91-1.77.03-3.54,0-6.18,0,1.78,4.26,3.25,7.79,4.73,11.32.45-.15.9-.29,1.35-.44-.51-2.99-1.01-5.98-1.56-9.25,3.77.42,7.93-.69,9.61,3.85,1.06,2.88,2.95,3.62,5.72,3.69,16.32.42,32.63,1.06,48.95,1.36,12.11.22,24.23.04,36.34.04.4.55.8,1.1,1.2,1.66-4.18,5.75-8.35,11.5-12.53,17.24ZM574.07,507.78c-.15-.23-.29-.46-.44-.69,3.67-2.83,7.43-5.55,10.92-8.6.73-.64.76-2.57.43-3.7-.14-.47-2.22-.76-3.22-.46-1.56.48-2.94,1.52-4.39,2.34-16.67,9.38-33.2,19.04-50.06,28.08-16.01,8.57-32.32,16.57-46.38,28.29-3.6,3-7.06,6.17-10.58,9.26l.54.65c5.3-3.39,10.59-6.78,15.89-10.17.18.25.36.51.54.76-1.4,1.46-2.8,2.91-3.37,3.51,10.57-4.68,22.05-9.77,33.54-14.84,4.38-1.93,8.92-3.52,13.11-5.79,2.23-1.2,3.61-3.98,5.84-5.17,1.55-.83,3.89-.16,6.32-.16-.79.83-1.1,1.23-1.47,1.54-24.6,20.68-49.14,41.45-73.84,62.01-15.35,12.77-32.09,23.33-51.35,29.19-17.14,5.21-34.6,6.37-51.43-.62-17.62-7.32-33.35-17.81-47.64-30.68-20.78-18.73-42.18-36.77-63.26-55.16-2.42-2.11-4.51-4.59-7.53-7.71,10.6,5.06,20.02,9.57,29.46,14.05,1.35.64,2.71,1.4,4.15,1.71,9.5,2.03,17.5,6.88,24.93,12.9,1.33,1.08,2.77,2,4.16,3,.39-.43.79-.87,1.18-1.3-1.92-1.5-3.84-2.99-5.77-4.49.2-.17.4-.34.6-.51,2.65,1.49,5.29,2.98,7.94,4.47.27-.34.53-.67.8-1.01-1.12-1.27-2.05-2.79-3.38-3.76-6.86-4.99-13.49-10.41-20.81-14.62-27.26-15.67-54.75-30.94-82.18-46.31-1.2-.67-2.67-.86-4.02-1.27-.12.32-.25.64-.37.96,2.13,2.25,4.27,4.5,6,6.33-.41,2.11-1.5,4.15-.89,5.15,3.05,5.01,5.9,10.41,10.01,14.48,15.92,15.79,29.94,33.07,42.55,51.56,1.36,1.99,3.02,3.77,4.55,5.64.44-.23.89-.47,1.33-.7-1.15-3.07-2.3-6.14-3.44-9.21,4.5,6.23,8.51,12.68,12.32,19.25,11.43,19.66,26.01,36.63,43.49,51.12,2.23,1.85,4.87,3.2,7.33,4.78.36-.47.73-.94,1.09-1.41-1.16-1.3-2.29-2.63-3.5-3.88-5.11-5.25-10.41-10.32-15.29-15.77-2.37-2.65-4.2-5.88-5.85-9.07-1.79-3.46-2.67-7.45-4.7-10.73-4.29-6.93-9.09-13.54-13.62-20.33-.72-1.09-1.12-2.39-1.67-3.59.34-.24.69-.47,1.03-.71,2.89,2.67,5.74,5.39,8.68,8,3.1,2.75,6.02,5.84,9.52,7.95,4.23,2.55,9.62,3.43,13.39,6.43,12.07,9.59,24.42,19.04,35.17,30.01,12.8,13.05,24.5,27.14,40.29,36.84,1.55.95,4.05,1.84,5.47,1.24,3.88-1.63,7.41-4.07,11.08-6.19-.24-.48-.48-.96-.72-1.44-1.99.94-4.07,1.71-5.95,2.84-7.71,4.66-7.95,4.64-13.02-2.95.7-.45,1.4-.9,2.1-1.35-5.8-4.47-11.25-8.68-16.7-12.89.31-.42.62-.84.94-1.27,1.32.41,2.63.81,3.95,1.22.1-.2.19-.4.29-.6l-22.82-17.4c24.49,8.78,48.07,5.13,71.87-3.48-.64,1.18-1.01,1.85-1.38,2.52,8.41-3.08,16.72-6.48,24.25-11.15,13.32-8.27,26.4-16.97,39.1-26.16,7.16-5.18,15.75-8.76,20.79-16.64.06-.09.53.08,1.11.19-2.32,3.78-4.42,7.56-6.86,11.12-9.4,13.69-18.75,27.43-28.46,40.9-3.09,4.28-7.29,7.75-10.84,11.72-1.38,1.55-2.36,3.45-3.53,5.19,1.81.59,2.64.46,3.26.04,17.62-11.89,32.6-26.3,43.04-45.06,4.58-8.23,9.26-16.4,13.89-24.6.34.18.67.36,1.01.55-2.31,4.26-4.63,8.51-6.94,12.77,3.69-2.77,6.83-5.9,9.25-9.52,14.9-22.27,33.05-41.76,51.6-60.94,3.79-3.92,6.83-8.56,10.21-12.86-.35-.32-.7-.63-1.05-.95-3.86,2.44-7.71,4.88-11.57,7.33ZM134.66,685.53v136.81c8.81-1,17.16-1.94,25.83-2.93v-53.76h36.76v49.2c7.3-.52,13.93-1.43,20.54-1.32,5.16.08,6.33-1.73,6.3-6.63-.19-38.47-.1-76.94-.1-115.41,0-1.93,0-3.85,0-5.87h-26.76v52.57h-37.02v-52.66h-25.56ZM521.9,717.21c-.82,2.78-2.49,5.92-2.54,9.08-.25,17.16-.15,34.32,0,51.48.01,1.53,1.22,3.04,2.05,4.96-3.5.96-2.82,3.6-1.01,6,4.9,6.49,9.69,13.12,15.2,19.07,1.96,2.12,5.77,3.18,8.85,3.47,10.92,1.03,21.9,1.32,32.83,2.26,21.5,1.84,17.39,3.13,30.02-12.39,3.32-4.07,4.97-8.26,4.95-13.61-.11-31.82.06-63.64.13-95.46,0-2.09,0-4.18,0-6.3h-27.3c0,2.87.02,5.35,0,7.83-.2,26.82-.33,53.64-.65,80.46-.08,6.84-4.37,10.57-11.05,10.22-2.99-.16-5.97-.46-8.96-.67-10.74-.77-14.95-4.66-15.34-15.4-.63-17.14-1-34.29-1.09-51.43-.02-4.65-1.42-8.19-4.92-10.82-3.92-2.95-5.94-6.78-7.62-11.33-3.81-10.35-4.63-10.49-16.13-8.09,0,8.9-.08,17.87.1,26.85.02,1.13,1.4,2.23,2.49,3.83ZM421.44,685.61v118.57c1.05.09,1.7.19,2.35.21,17.64.32,35.3.39,52.93,1.07,6.81.26,12.01-1.38,15.67-7.31,1.13-1.82,2.54-3.58,4.17-4.96,5.24-4.42,6.07-10.09,6.02-16.56-.17-22.64.09-45.28.11-67.92,0-1.55-.25-3.52-1.19-4.59-4.49-5.14-9.02-10.28-14.02-14.89-2.03-1.88-5.27-3.4-7.99-3.45-19.14-.29-38.29-.15-58.04-.15ZM651.48,771.54c6.64.49,12.81.48,18.8,1.49,20.96,3.51,23.19,3.01,37.33-11.9,1.51-1.59,2.58-4.25,2.63-6.44.26-11.82-.93-23.78.42-35.45,1.47-12.65-4.03-20.72-12.99-28.03-4.46-3.64-8.99-5.81-14.9-5.75-17.49.19-34.98.01-52.47-.02-1.74,0-3.48,0-5.32,0v133.65c8.91.84,17.41,1.65,26.5,2.51v-50.05ZM237.23,746.25c-.05,0-.1,0-.15,0,0,8.66.96,17.45-.22,25.94-1.81,13.02,3.22,22.69,11.61,31.76,3.22,3.48,6.41,4.58,10.93,4.22,10.44-.82,20.93-1.81,31.37-1.59,7.48.16,12.84-2.23,16.97-8.18,1.33-1.91,2.76-3.77,4.32-5.49,3.78-4.17,5.04-8.89,4.96-14.59-.3-19.98-.93-40.01.23-59.92.69-11.79-2.6-20.62-11.24-28.01-.38-.32-.61-.89-1.03-1.07-3.07-1.32-6.11-3.44-9.27-3.66-7.62-.51-15.31-.12-22.97-.09-20.55.07-20.62.01-33.01,16.48-1.46,1.94-2.35,4.78-2.39,7.23-.24,12.32-.11,24.64-.11,36.97ZM329.51,744.89h-.13c0,11.99,0,23.99,0,35.98,0,5.44,11.26,21.54,16.4,23.28,1.21.41,2.64.26,3.96.26,8.16,0,16.32-.01,24.49-.04,19.01-.05,19.15.05,30.36-15.19,2.08-2.83,3.47-6.87,3.53-10.37.33-19.98-.63-40.02.46-59.95.65-11.83-3.02-20.56-11.53-27.97-.88-.76-1.53-1.91-2.53-2.38-2.45-1.16-5-2.78-7.57-2.89-8.15-.36-16.41.68-24.46-.28-12.48-1.49-21.64,2.82-28.43,13.04-.64.97-1.74,1.7-2.16,2.73-.95,2.38-2.24,4.86-2.29,7.32-.23,12.16-.11,24.32-.11,36.48ZM723.69,813.06c-.16.89-.3,1.33-.3,1.78-.12,7-.23,13.99-.31,20.99-.1,8.68-5.48,12.99-13.98,11.36-5.54-1.06-11.11-2.07-16.71-2.77-27.9-3.51-55.77-7.27-83.72-10.26-27.98-2.99-56.01-5.64-84.07-7.58-27.4-1.89-54.87-3.61-82.31-3.79-44.96-.29-89.96-.02-134.89,1.46-31.57,1.04-63.09,4.11-94.57,6.94-27.99,2.51-55.92,5.72-83.84,9.02-18.67,2.21-37.25,5.13-55.88,7.69-8.13,1.12-15.34-4.57-15.45-12.28-.46-31.47,2.49-62.96-1.31-94.44-1.19-9.85.45-20.01-.17-29.96-.64-10.2.86-19.06,9.61-25.54,1.44-1.07,2.4-2.75,3.63-4.11,6.87-7.6,15-12.54,25.63-12.53,5.99,0,11.99-.52,17.98-.53,36.49-.05,72.99-.03,109.48-.03,2.33,0,4.67-.06,7-.01,2.78.06,3.76-1.39,3.9-4.01.25-4.83-1.16-6.29-6.5-6.28-41.16.06-82.32.33-123.48.05-13.62-.1-25.64,3.52-36.29,11.71-2.37,1.82-4.04,4.67-5.74,7.25-2.42,3.67-4.74,7.44-6.76,11.34-1.37,2.65-3.1,5.64-3.01,8.42.69,21.25-.44,42.46,1.17,63.81,1.94,25.65-.05,51.61-.53,77.43-.08,4.47,1.6,7.73,4.76,10.44,4.24,3.65,9.13,5.32,14.78,4.52,14.97-2.13,29.93-4.32,44.92-6.32,19.28-2.57,38.55-5.29,57.88-7.36,22.67-2.43,45.38-4.73,68.12-6.19,36.56-2.35,73.14-4.87,109.74-5.71,61.14-1.4,122.28-.42,183.28,4.73,27.02,2.28,54.1,4.2,81.02,7.36,32.02,3.76,63.91,8.69,95.85,13.11,6.51.9,13.99-4.26,14.37-10.84.56-9.58.57-19.25-3.29-28.87ZM539.74,487.96c.43.4.87.8,1.3,1.2,3.79-5.32,8.42-10.24,11.12-16.06,2.71-5.82,3.49-12.54,5.11-18.86.22.05.44.1.66.15.08,1.25.16,2.5.25,3.89,9.8-8.99,6.88-20.22,7.08-31.03.86,3.87,1.72,7.75,2.41,10.84,4-10.52-.54-21.37-1.79-32.5,1.51,1.52,2.65,3.12,3.59,4.84,1.44,2.62,2.05,6.33,4.21,7.81,6.84,4.66,5.94,11.77,6.11,18.11.16,5.83-1.68,11.72-2.64,17.59,9.6-22.92,7.21-44.45-9.18-64.16l1.61-.34c5.03,5.44,10.07,10.87,15.1,16.31.47-.22.93-.44,1.4-.66-2.33-15.11-7-29.43-15.65-42.39-.08-.12-.58.04-1.1.09.36,1.18.71,2.31,1.06,3.44l-.55.23c-2.76-3.45-5.53-6.9-8.29-10.35l-.89.7c1.51,3.93,3.02,7.85,4.54,11.78-.55.27-1.1.54-1.65.81l-7.25-9.13-.54.46c2.16,4.97,4.31,9.95,6.47,14.92-.43.21-.87.42-1.3.64-3.79-5.27-7.59-10.54-11.68-16.23,1.74,8.67,3.34,16.62,4.94,24.58-.67.29-1.34.59-2,.88-5.17-8.01-8.42-17.6-17.75-23.32,2.11,5.37,3.92,9.99,5.73,14.61-.2.07-.4.15-.6.22-1.08-1.53-2.16-3.05-3.23-4.58-.4.16-.79.31-1.19.47,1.51,6.2,3.03,12.4,4.54,18.6-3.95-3.95-3.77-11.36-11.62-11.39.34,1.42.6,2.55.87,3.67-.23.09-.47.17-.7.26-1.56-2.17-3.12-4.34-4.68-6.5-.14.09-.28.18-.42.27,1.63,4.07,3.27,8.14,4.79,11.94-4.06-3.48-8.15-6.99-12.25-10.5-.61.47-1.22.94-1.83,1.41.58,1.78,1.02,3.64,1.79,5.34.9,1.99,2.09,3.85,3.15,5.77l-1.45,1.17c-2.91-3.7-5.83-7.39-8.74-11.09-.58.43-1.16.86-1.74,1.3,1.2,2.7,2.41,5.39,3.75,8.4-1.71-.1-3.07-.18-4.37-.25.15,1.14.28,2.07.47,3.46-2.78-2.62-5.05-4.75-7.32-6.89-.32.28-.64.56-.95.84,2.24,4.26,4.48,8.52,6.71,12.78l-1.23.91c-3.87-3.9-7.75-7.81-11.62-11.71,2.3,6.66,5.51,12.59,8.53,18.61.86,1.72,1.16,3.71,1.73,5.58.65,2.13,1.1,4.36,2.04,6.35,2.76,5.85,6.76,11.34,8.32,17.47,1.46,5.76.47,12.15.47,18.26,0,1.83-.27,3.66-.42,5.48.72.18,1.43.36,2.15.54,1.96-5.64,4.57-11.16,5.7-16.96,1.17-5.99.91-12.25,1.3-18.9,6.69,17.24,2.06,33.58-1.25,50.22,1.09-2.77,2.17-5.55,3.48-8.89.34,1.99.55,3.27.77,4.55.51.05,1.02.11,1.53.16,4.05-8.15,3.69-17.56,5.97-24.58,2.57-.74,4.26-1.22,6.36-1.82v14.59c.84-3.11,1.38-5.09,1.91-7.07.32.02.65.04.97.05v6.41c.33.02.66.04.98.06,2.08-5.78,4.16-11.56,6.69-18.6,1.5,9-2.26,25.57-9.77,45.72ZM233.68,264.05c.38.24.76.47,1.14.71.8-1.19,1.83-2.29,2.35-3.59,1.83-4.64,3.57-9.32,5.18-14.04,1.13-3.32,3.22-4.94,6.74-4.52,18.26,2.17,36.83-1.64,54.98,3.11,4.88,1.28,10.02,1.54,15.04,2.27.01.12.03.24.04.36-9.52.78-19.04,1.55-28.56,2.33,0,.42.01.83.02,1.25h10.19c0,.36,0,.73,0,1.09-9.06,1.78-18.13,3.56-27.19,5.35,81.17,3.05,162.22,3.88,244.61.54-7.06-.76-12.79-1.38-19.16-2.07,2.76-.3,4.85-.53,7.27-.79-9.13-1.33-17.84-2.6-26.55-3.87l.03-.68h16.67c0-.28.01-.55.02-.83l-28.44-1.79c-.01-.29-.02-.57-.03-.86,7.66-.66,15.32-1.32,22.98-1.97-.01-.19-.03-.39-.04-.58-1.76-.19-3.51-.38-6.52-.7,4.54-.46,7.84-1.02,11.15-1.08,15.16-.29,30.31-.53,45.47-.53,1.51,0,3.73,1.39,4.4,2.74,2.37,4.75,4.11,9.81,6.3,14.66.7,1.55,2.03,2.81,3.08,4.21-1.13-5.33-3.47-9.91-5.03-14.74-2.25-6.95-6.34-10.42-13.91-9.88-4.12.29-8.31-.57-12.46-.57-81.62-.06-163.25-.12-244.87,0-10.8.01-21.61.88-32.4,1.54-1.42.09-3.56.93-4.03,2-3.03,6.91-5.68,13.97-8.46,20.99ZM467.76,174.65c.07-.12.13-.24.2-.37-2.11-.89-4.16-1.96-6.34-2.63-33-10.12-66.48-15.32-100.8-8.15-12.15,2.54-24.02,6.4-35.98,9.81-.91.26-1.47,1.71-2.2,2.61,1.12.21,2.31.79,3.34.58,8.47-1.74,16.91-3.62,25.36-5.47,4.37-.96,7.29.59,8.51,4.83,3.84-.83,7.55-1.63,11.16-2.41-15.67,7.24-31.34,14.47-47,21.71.32.9.63,1.8.95,2.71,9.32-2.4,18.63-4.8,29.17-7.52-10.94,7.63-23.27,10.51-31.16,20.63,9.2-3.56,18.4-7.12,27.6-10.68.1.28.2.56.3.83-5.33,2.56-10.65,5.13-16.15,7.78,19.16-1.55,38-4.14,56.86-4.31,18.91-.17,37.85,2.08,57.25,3.3-2.78-1.69-5.31-3.23-7.84-4.77.25-.56.51-1.12.76-1.68,8.41,3.13,16.83,6.26,25.24,9.39.18-.39.36-.78.55-1.17-10.69-8.39-23.5-13.19-35.11-20.29,10.86,3.11,21.72,6.21,32.58,9.32-11.85-10.56-26.66-15.5-41.12-22.78,2.35-.35,3.89-.58,5.48-.81-1.57-4.61-.82-5.56,3.7-4.98,11.56,1.5,23.12,3.03,34.69,4.54ZM368.72,580.6c-.61-6.86-1.43-13.06-1.62-19.28-.19-6.07-.56-12.32,3.42-17.8-.57,11.26,2.41,21.53,7.26,31.42,4.74,9.67,9,19.61,16.84,28.51,7.21-11.1,14.56-21.42,17-34.53.48.78.84,1.37,2.07,3.36,1.66-10.74,3.11-20.14,4.56-29.55.45.04.91.09,1.36.13,4.22,11.36.66,23.19.28,35.16,7.09-12.44,14.45-24.08,10.52-38.86.79.03,1.58.06,2.38.09,1.53,7.09,3.07,14.18,4.57,21.16,6.86-8.76-1-16.9-1.9-25.8,1.52,1.34,2.56,2.25,3.72,3.27,2.29-5.34-1.42-11.47-9.24-15.63.97,2.14,1.8,4,2.36,5.23-4.18-1.97-8.6-4.06-14-6.6.64,2.29.97,3.43,1.52,5.39-4.07-3.56-7.45-6.51-10.83-9.47q1.5,6.7.64,7.68c-4.5-2.41-8.57-5.47-13.15-6.84-6.48-1.94-7.48,4.74-10.79,8.09.73-2.38,1.46-4.77,2.25-7.34-4.7,1.65-8.91,3.13-13.27,4.66-.53-.8-1.2-1.81-2.17-3.28-2.42,3.38-4.52,6.3-6.62,9.23-.25-.12-.51-.23-.76-.35,1.34-2.85,2.68-5.69,4.47-9.51-3.55,3.21-6.27,5.68-9.28,8.4.39-2.54.67-4.33.94-6.12-10.12,8.84-18,24.52-10.53,38.08,1.44-7.27,2.91-14.66,4.37-22.06.55.05,1.09.11,1.64.16-1.12,15.6,1.66,30.07,12.01,43ZM75.04,735.04v95.04c9.2-1.3,17.55-2.47,25.99-3.66v-140.52c-13.68-1.76-14.41-.53-23.52,7.75-9.01,8.18-12.41,17.2-10.91,28.99.78,6.13.14,12.44.14,20.11,3.12-2.89,5.22-4.84,8.31-7.71ZM250.51,83.48c.31-.29.63-.58.94-.87-5.6-6.94-11.21-13.87-16.88-20.89,1.18-.4,2.16-.57,2.99-1.03,23.52-13.06,48.17-23.64,73.91-31.25,15.67-4.63,31.77-8.63,47.96-10.43,16.41-1.82,33.17-.59,49.77-.7,1.07,0,2.13,0,3.2,0,0-.23.01-.45.02-.68-2.6-.16-5.2-.31-7.8-.47,54.2.44,102.84,19.23,149.03,45.73-4.06,5.35-8.36,11.02-12.67,16.7.56.41,1.12.82,1.68,1.23,5.35-7.05,10.71-14.1,16.48-21.7-58.05-37.53-120.43-54.33-188.51-48.65-50.87,4.25-97.76,20.49-141.05,47.63,3.63,5.07,6.49,9.58,9.88,13.67,3.42,4.12,7.35,7.82,11.05,11.7ZM701.33,835.43c.51.02,1.01.03,1.52.05.12-1.72.31-3.45.34-5.17.2-10.16.23-20.33.64-30.48.08-2.06,1.06-4.55,2.48-6.01,5.82-5.95,11.83-11.73,18.06-17.25,2.89-2.56,3.96-5.26,3.94-9.07-.12-24.32-.04-48.65-.03-72.97,0-.83.25-1.85-.13-2.46-4.14-6.67-7.14-14.76-12.88-19.56-9.91-8.3-21.43-14.32-35.35-14.22-36.15.26-72.31.11-108.46-.02-3.98-.01-5.48,1.04-5.57,5.29-.11,4.78,2.36,4.92,5.88,4.92,34.82-.03,69.64.16,104.46-.02,12.93-.07,24.31,3.28,33.56,12.58,3.87,3.9,7.72,7.85,11.22,12.07,1.35,1.63,2.39,4.07,2.41,6.16.21,22.65.27,45.31.11,67.96-.02,2.21-1.27,4.85-2.79,6.52-5.37,5.91-11.17,11.43-16.67,17.22-1.19,1.25-2.6,3.01-2.63,4.55-.21,13.3-.12,26.61-.12,39.92ZM264.19,64.44c86.98-39.58,172.88-40.26,258.94-1.66-68.82-48.68-191.29-46.78-258.94,1.66ZM624.09,283.81c-.69-26.82-5.77-53.07-11.17-79.35,14.24.26,21.73,9.44,21.95,22.4.03,1.49.47,2.96.55,4.45.4,7.33.75,14.66,1.11,22-.27.01-.55.03-.82.04-1.3-6.39-2.6-12.78-3.9-19.17l-1.58.28c.34,16.73.92,33.39,4.33,49.94,1.07,5.21,3.52,5.42,7.15,4.67,2.16-.45,4.11-1.87,6.09-2.82.39,2.62.75,5.41,1.24,8.18.45,2.55,1.03,5.09,1.56,7.63.9-1.32,1.01-2.46.88-3.58-2.54-21.1-4.79-42.24-7.83-63.27-1.25-8.64-3.93-17.13-6.57-25.49-.77-2.44-3.4-5.66-5.6-6.03-6.66-1.12-13.53-1.02-20.22-1.38,4.34,27.55,8.58,54.53,12.83,81.51ZM534.39,627.18c.6.06,1.19.11,1.79.17,4.67-9.16,5.59-20.14,14.53-27.3,4.72-3.78,8.23-9.11,12.19-13.82,23.6-28.09,51.44-51.31,83.59-68.66,15.25-8.23,15.47-33.76,7.44-43.62.41,2.27,1.4,4.37,1.92,6.58,3.22,13.61-4.52,30.94-17.03,38.59-7.52,4.6-15.14,9.07-22.37,14.1-17.6,12.25-35.14,24.6-52.43,37.28-10.41,7.64-21.49,15.09-24.51,28.97-2,9.17-3.43,18.47-5.11,27.72ZM164.42,285.26c.44.06.89.11,1.33.17,3.8-27.22,7.61-54.45,11.49-82.29-2.1,0-4.05-.08-5.99.01-17.8.81-17.1-3.73-21.9,18.63-4.31,20.08-6.9,40.55-9.88,60.89-1.16,7.94-1.33,16.02-1.96,24.04.34.04.68.08,1.02.12,1.05-7.31,2.09-14.63,3.14-21.98q5.14,4.23,8.91,2.54c-1.86-1.29-3.59-2.49-5.32-3.69,1.21-.29,1.9.13,2.6.53,6.19,3.47,7.53,3.19,8.23-3.72,1.17-11.54,1.56-23.17,2.2-34.76.05-.95-.45-1.93-1.04-4.26-1.96,5.67-3.43,9.95-4.75,13.75.29-4.35.59-9.33.96-14.3.37-4.97.78-9.93,1.22-14.89,1.41-15.99,2.25-16.98,17.83-21.17.77-.21,1.57-.28,2.35-.41-3.49,27.05-6.97,53.93-10.44,80.81ZM554.41,699.44c0-8.96.3-17.93-.07-26.88-.61-14.64,2.69-28.38,8.58-41.62,11.76-26.43,30.18-47.65,51.88-66.31,20.19-17.37,42.41-30.86,68.59-37.35,5.67-1.41,11.26-4.23,16.14-7.51,9.28-6.23,12.91-17.41,9.6-27.2-3.4-10.03-10.97-16.09-19.95-20.72,4.02,4.53,8.69,8.54,12.31,13.35,9.18,12.19,6.11,26.32-7.03,34.12-2.13,1.26-4.44,2.32-6.78,3.12-9.28,3.18-18.88,5.58-27.87,9.42-27.56,11.79-50.5,30.21-70.39,52.23-15.97,17.68-29.8,36.75-35.21,60.96-4.07,18.2-.42,36.12.2,54.39ZM603.65,148.13c.25.09.49.17.74.26-.43,4.17-.86,8.35-1.32,12.77,1.27-1.14,2.24-2.02,4.28-3.87-.85,2.89-1.27,4.3-1.69,5.72.61-.02,1.22-.04,1.83-.06,1.64,3.19-1.54,6.82-.78,10.84,5.98-9.38,7.39-18.67,5-28.75-3.93-16.61-23.25-39.15-47.33-41.23-4.94-.43-10.02.7-16.42,1.22,5.91,6.11,11.6,8.53,18.22,9.57,5.36.84,11.19,1.49,15.72,4.1,4.83,2.79,8.38,7.79,12.26,11.61-1.86.45-4.63,1.12-7.96,1.93,3.25,1.5,5.88,2.71,9.57,4.4-2.19,1.39-3.68,2.33-5.16,3.27.22.37.44.74.66,1.11h6.99c1.15,4.57-5.94,9.55,1.58,12.89,1.18-1.79,2.49-3.78,3.8-5.78ZM192.34,129.79c.55-.48.91-.79,1.27-1.11,3.01-2.72,10.86-.34,8.9-8.41-.06-.23.98-.84,1.58-1.09,2.45-1.02,4.84-2.43,7.4-2.87,6.32-1.08,13.15.71,18.77-4.1,2.46-2.11,5.54-3.49,8.34-5.21-.19-.81-.39-1.61-.58-2.42-6-.17-12.23-1.47-17.96-.31-21.48,4.35-35.04,18.41-42.37,38.32-3.87,10.49-1.71,20.94,5.66,30.01-.84-4.25-1.68-8.5-2.26-11.4,5.86-3.71,1.88-9.04,3.73-13.02,1.4,2.27,2.56,4.15,3.71,6.03.32-.07.63-.14.95-.21v-13.14c1.41.66,2.23,1.04,3.48,1.62-.4-1.53-.68-2.58-.94-3.58,1.14-.39,2.11-.72,2.98-1.01-.57-1.37-.96-2.31-1.48-3.56,2.59-.49,4.64-.88,6.7-1.27.07-.39.13-.79.2-1.18-2.56-.66-5.11-1.33-8.07-2.09ZM128.08,541.39l-1.29-1.17c-4.44,5.04-8.84,10.12-13.35,15.09-.98,1.08-2.25,2.24-3.59,2.61-20.65,5.7-41.35,11.22-61.99,16.94-2.97.82-5.7,2.49-9.22,4.07,6.94,12.39,13.58,24.23,20.22,36.08.48-.21.95-.42,1.43-.64-3.47-9.4-6.94-18.8-10.39-28.14,5.57-2.76,10.55-6.41,16.71-2.45l-2.87-3.58c.14-.43.27-.86.41-1.29,3.71.23,7.41.46,11.3.7-.89-1.08-1.85-2.25-2.81-3.42.24-.41.47-.81.71-1.22,3.63,1.67,7.26,3.33,11.98,5.5-2.37-3.04-3.93-5.03-5.48-7.03.4-.45.81-.9,1.21-1.35,3.32,1.89,6.64,3.77,10.17,5.78-1.04-2.79-1.93-5.19-2.82-7.58.45-.23.9-.46,1.35-.7,1.8,1.69,3.6,3.37,6.33,5.92-1.19-3.14-1.91-5.06-3.08-8.13,15.23-1.71,24.58-12.38,35.3-21.13-.07-1.62-.14-3.25-.21-4.87ZM732.72,609.64c.57.26,1.13.52,1.7.78,6.29-10.39,12.57-20.79,19.39-32.06-24.18-10.69-48.81-16.51-73.71-21.39-.3.74-.6,1.48-.89,2.22,6.51,2.89,13.01,5.77,19.7,8.74-1.35,2.05-2.32,3.5-3.66,5.54,3.34-1.66,6.01-2.99,8.67-4.32.27.5.55,1.01.82,1.51-1.64,2-3.27,3.99-4.91,5.99.24.17.48.35.71.52,3.33-1.8,6.65-3.61,9.98-5.41.26.48.53.95.79,1.43-1.48,1.66-2.96,3.31-4.44,4.97.26.4.52.79.79,1.18,4.39-2.59,8.71-5.96,14.08-2.24-2.01,1.49-3.74,2.78-6.53,4.84,5.47-.17,8.95-6.01,13.44-1.47-.69,1.14-1.3,2.15-1.91,3.16,6-4.34,10.5.29,15.41,1.96-3.16,8.08-6.29,16.07-9.42,24.06ZM688.92,513.98c-.28-.79-.56-1.57-.85-2.36-13.06,4.78-26.75,8.31-39.05,14.57-37.1,18.85-66.8,46.42-89.91,80.95-9.66,14.43-17.63,29.82-20.26,47.33-2.38,15.9,1.3,31.44,3.12,47.08.02.13.55.2,1.1.38.07-1.36.26-2.65.17-3.92-.59-8.47-1.15-16.93-1.88-25.39-1.89-21.84,6.26-40.83,17.08-58.91,14.38-24.03,33.87-43.49,55.42-61.08,17.56-14.33,36.39-26.28,58.32-32.83,5.65-1.69,11.16-3.87,16.73-5.83ZM350.59,406.23c.54.14,1.09.29,1.63.43.36-1.42.68-2.85,1.08-4.26,4.27-15,8.37-18.3,23.94-18.84,6.98-.24,13.97-.16,20.96-.16,5.64,0,11.29-.05,16.93.19,10.11.43,15.41,4.49,18.87,14.1.94,2.6,1.88,5.21,2.81,7.81-.44-5.71-1.87-11.13-3.27-16.56-1.65-6.4-5.86-10.43-12.02-12.22-18.01-5.23-36.2-5.2-54.11-.04-4.16,1.2-8.83,4.95-10.7,8.78-3.13,6.39-4.19,13.8-6.12,20.77ZM121.36,230.61c-1.83-.13-2.82-.24-3.81-.27-7.86-.26-8.24-.31-9.49,7.63-2.2,13.95-4.11,27.96-5.69,41.99-.87,7.72-.81,15.55-1.17,23.33.31.02.61.03.92.05.88-7.9,1.77-15.79,2.64-23.53.37,2.87.76,5.87,1.15,8.88.24-.03.49-.06.73-.1.44-1.52.87-3.05,1.36-4.75,3.61.41,8.54,2.92,9.03-2.62,1.16-13.01,4.25-26.04.74-39.18-1.07-4.03-.73-7.93,3.6-11.43ZM674.57,286.15c4.46-.83,10.35,1.62,10.05-6.17.48,3.03.94,5.95,1.4,8.88.46,2.9.91,5.8,1.36,8.7.58-.08,1.15-.16,1.73-.23-2.31-19.62-4.53-39.26-6.98-58.86-1.05-8.39-1.26-8.37-9.88-8.04-.49.02-.98.14-.11,0,.85,3.4,1.71,6.88,2.57,10.35-.31.08-.62.16-.93.24-.6-1.39-1.19-2.77-1.79-4.16-.5.09-.99.18-1.49.27-.46,16.25,1.14,32.38,4.09,49.01ZM469.44,65.05c12.66,7.54,24.84,14.07,36.23,21.77,11.55,7.8,22.89,16.12,33.28,25.39,10.25,9.14,19.59,19.41,28.58,29.83,8.97,10.4,17.01,21.6,25.45,32.45-25.2-54.11-68.8-87.45-123.54-109.43ZM452.68,333.01c6.83,6.34,10.13,8.71,18.13,8.52,17.58-.41,35.17-1.38,52.7-2.8,6.4-.52,12.64-2.95,18.96-4.51-.1-.4-.2-.8-.3-1.2-29.83,0-59.66,0-89.49,0ZM161.51,147.36c3.72-6.08,7.45-12.11,11.1-18.17,2.52-4.18,4.38-8.93,7.55-12.54,7.27-8.29,15.16-16.04,22.92-24.14-1.6-1.95-3.16-3.84-4.86-5.91-1.11.86-1.93,1.39-2.62,2.05-14.54,14.05-27.42,29.45-37.68,46.92-3.79,6.46-3.67,6.53,3.59,11.79ZM336.94,333.08h-90.84c1.98.88,3.34,1.65,4.8,2.1,20.5,6.22,41.61,6.41,62.78,6.63,8.66.09,15.76-2.54,23.26-8.73ZM585.01,93.62c18.1,15.4,34.5,32.31,44.15,54.85,1.59-2.2,2.96-3.55,3.63-5.19.58-1.4,1.06-3.54.4-4.65-11.51-19.38-25.9-36.42-42.54-51.96-1.85,2.27-3.5,4.31-5.64,6.95ZM89.3,317.58c-.85-10.1-1.98-20.19-2.5-30.3-.77-14.81.81-24.78,4.73-30.73-3.31,11.78-4.15,22.68-1.59,34.89.28-2.43.42-3.68.56-4.93.11.01.23.03.34.04v9.93c1.3-3.22,2.89-7.04,4.39-10.89,1.29-3.28,3.07-6.5,3.6-9.9,1.17-7.54,1.72-15.19,2.47-22.79.33-3.32.53-6.66.84-10.57-8.59,5.07-12.78,10.3-14.71,19.13-4.09,18.82-3.11,37.59,1.86,56.13ZM699.24,258.38c6.67,18.83,2.57,37.88,2.56,56.8,1.42-8.16,3.07-16.38,2.83-24.55-.33-11.04-1.59-22.13-3.46-33.03-1.18-6.9-6.32-11.55-12.3-14.81-.5.21-1.01.42-1.51.63l4.8,44.98.83-.09c.29-1.22.57-2.43.86-3.66,7.19,1.89,7.62,1.8,7.39-5.81-.21-6.72-1.28-13.41-2-20.45ZM667.6,221.05c.51-.1,1.01-.2,1.52-.3-2.91-19.69-5.67-39.42-18.37-55.99-3.38,2.47-5.43,5.44-4.03,10.1,3.25,10.82,6.18,21.73,9.52,32.51.57,1.82,2.23,3.91,3.92,4.61,1.62.67,3.92-.3,5.7-.53.54,2.97,1.14,6.28,1.74,9.59ZM514.49,627.88c8.32-3.38,20.89-27.92,20.35-37.33-20.34,18.11-36.05,39.66-53.42,59.73,16.83-12.63,32.07-26.84,44.24-44.13-3.72,7.24-7.45,14.49-11.17,21.73ZM357.43,504.93c8.19-2.03,16.29-4.88,24.61-5.85,8.16-.95,16.63-.7,24.8.32,8.12,1.02,16.03,3.65,24.03,5.58-11.78-5.94-21.82-15.42-36.43-14.87-14.4.54-25.55,8.12-37.01,14.82ZM18.92,589.68c9.33,14.55,18.07,28.18,26.81,41.81.45-.24.91-.48,1.36-.72-5.61-15.71-11.22-31.41-17.2-48.15-4.06,2.61-7.64,4.92-10.97,7.06ZM668.43,314.39c-.41-31.32-4.33-62.06-10.26-92.89h-9.6c-.1.42-.19.83-.29,1.25,1.73.54,3.49,1.01,5.17,1.66.97.37,2.53.92,2.64,1.59,1.39,8.29,3.29,16.6,3.61,24.95.37,9.45-.72,18.96-1.18,28.45.75.1,1.5.2,2.25.29.64-2.15,1.29-4.3,1.95-6.51,1.9,13.78,3.8,27.49,5.7,41.21ZM763.73,581.19c-5.88,15.97-11.3,30.7-16.72,45.43.48.2.96.39,1.44.59,8.31-12.42,16.63-24.84,25.53-38.14-2.57-1.97-5.96-4.58-10.26-7.88ZM142.61,222.05c-6.28-1.57-10.53-.2-11.12,3.33-.47,2.78-.84,5.57-1.2,8.37-2.31,18.12-4.71,36.23-6.83,54.38-.84,7.14-1.03,14.35-1.52,21.53,1.49-2.82,2.03-5.73,2.43-8.66,2.92-21.4,5.82-42.81,8.72-64.22.42-3.13-.1-6.82,1.42-9.26,1.47-2.37,4.98-3.47,8.12-5.46ZM516.05,519.92c11.56-1.18,46.49-18.78,57-28.73-15.36,4.9-50.54,22.63-57,28.73ZM204.22,78.73c4.88,7.12,5.38,7.25,11.1,2.16,3.96-3.52,7.74-7.23,11.61-10.86-1.72-2.47-3.19-4.57-4.85-6.96-6.23,5.46-11.95,10.47-17.86,15.66ZM226.6,497.26c14.51,9.6,28.99,19.27,46.64,22.35-14.35-9.94-30.17-16.82-46.64-22.35ZM581.59,86.81c.83-3.75,2.76-7.68,1.74-8.71-5.14-5.21-11.05-9.67-16.71-14.4-4.11,5.43-4.26,6.58-.2,10.37,4.34,4.05,9.08,7.66,15.17,12.74ZM145.96,167.66c2.45-4.46,4.88-8.71,7.07-13.09.38-.77.07-2.39-.53-3.05-1.98-2.17-4.25-4.07-6.43-6.1-7.89,10.43-8,14.88-.1,22.23ZM98.26,340.09c-.25,0-.49.01-.74.02-1.04-7.69-2.08-15.38-3.12-23.06-.33,7.07.02,14.05-.41,20.98-.77,12.36,9.58,16.81,16.08,24.07-1.1-3.86-3.07-7.23-4.64-10.77-2.16-4.89-4.25-9.83-5.91-14.91-.67-2.04-.11-4.49-.11-6.75-.38.02-.77.04-1.15.07v10.36ZM578.18,530.68c6.65-3.29,13.83-6.98,21.14-10.39,4.63-2.16,9.59-7.85,9.74-11.83-11.81,4.53-23.21,12.85-30.88,22.23ZM381.44,141.77c7.67,2.52,31.4,1.49,36.86-1.28-14.57-2.79-28.72-3.07-42.92-.05h11.36l.09.51c-1.34.2-2.67.4-5.4.82ZM372.68,149.75h44.72c-15.01-5.21-29.94-4.5-44.72,0ZM681.75,359.66c.21.21.43.43.64.64,4.02-4.43,8.07-8.84,12.04-13.31.5-.56.81-1.5.81-2.27.06-9.01.04-18.02.04-27.03-.15-.03-.3-.05-.46-.08-.89,7.66-1.78,15.33-2.67,22.99l-.53-.08c-.25-2.13-.5-4.25-.69-5.84-1.3,3.96-2.56,8.23-4.09,12.4-1.56,4.25-3.39,8.4-5.11,12.6ZM642.68,164.18c8.39-4.23,8.56-7.32,1.04-18.31q-9.17,6.31-1.04,18.31ZM208.42,527.61c-8.06-7.55-15.25-16.59-28.48-18.01,8.22,8.96,18.73,12.86,28.48,18.01ZM274.49,350.48c-7.29-2.29-14.32-4.57-21.39-6.7-11.31-3.4-17.62-11.32-20.36-22.41-1.72-6.94-3.16-13.94-4.72-20.92.21,5.32.58,10.62,1.72,15.75,1.87,8.46,3.99,17.41,11.25,22.71,9.74,7.12,21.32,10.22,33.51,11.57ZM134.24,253.06c-.87-.08-1.74-.17-2.61-.25-1.54,17.73-3.07,35.46-4.61,53.19,1.88-17.71,7.13-35.06,7.22-52.94ZM659.48,387.42c4.55-13.97.69-27.96,0-41.94v41.94ZM563.7,203.67c-.42.29-.84.58-1.26.88,8.64,12.33,17.29,24.66,25.93,36.98.45-.31.91-.63,1.36-.94-8.68-12.31-17.35-24.61-26.03-36.92ZM130.45,388.01v-36.6c-3.27,19.06-3.04,31.91,0,36.6ZM406.2,653.41c1.49.58,2.48.97,3.46,1.35.08.52.17,1.04.25,1.56,5.47-4.19,10.95-8.38,16.42-12.57-.26-.34-.53-.68-.79-1.03-6.3,3.48-12.61,6.96-19.34,10.69ZM406.95,152.88l.03-1.12h-25.25c0,.37,0,.75,0,1.12h25.22ZM295,395.09l-1.04-.43-10.66,25.18,1.86.76,9.84-25.52ZM492.05,351.14c-10.25-.66-21.3-1.38-31.92-2.07,10.39,3.98,21.64,1.72,31.92,2.07ZM607.14,278.31c.42-.25.83-.5,1.25-.75-3.96-8.6-7.92-17.19-11.87-25.79-.43.2-.86.4-1.29.61,3.97,8.64,7.94,17.29,11.91,25.93ZM671.25,371.64c.63-.03,1.26-.07,1.89-.1-.52-7.86-1.05-15.72-1.57-23.58l-.32.06v23.62ZM120.84,348.35c-.28-.02-.56-.04-.84-.06-.64,7.78-1.27,15.55-1.91,23.33.56.04,1.12.08,1.67.12.36-7.79.72-15.59,1.08-23.38ZM205.93,231.7l1.32.89c4.2-6.05,8.4-12.1,12.6-18.14-.45-.3-.9-.61-1.34-.91l-12.58,18.16ZM195.39,251.61c-.45-.25-.67-.37-.88-.49-3.12,5.61-6.25,11.22-9.37,16.83.47.25.94.49,1.41.74,2.95-5.69,5.9-11.39,8.85-17.07ZM301.04,488.21c-.54.34-1.08.69-1.62,1.03,2.29,3.3,4.57,6.6,6.86,9.9.45-.29.9-.58,1.35-.88-2.19-3.35-4.39-6.71-6.58-10.06ZM369.58,433.83c-.27.59-.53,1.19-.8,1.78,3.36,1.54,6.72,3.08,10.08,4.61.24-.55.48-1.1.72-1.65-3.33-1.58-6.66-3.16-10-4.74ZM419.6,435.42c-.32-.58-.64-1.17-.96-1.75-2.91,1.5-5.81,2.99-8.72,4.49.26.51.52,1.03.78,1.54,2.97-1.43,5.94-2.85,8.91-4.28ZM246.67,651.59c-.44.02-.88.04-1.31.06.4,4.89.81,9.77,1.21,14.66.27-.02.53-.05.8-.07l-.7-14.65ZM362.61,416.32c5.53,1.4,8.99-.5,8.67-4.57-2.85,1.5-6.17,3.25-8.67,4.57Z"/><path class="cls-1" d="M649.64,871.78c-6.75,0-13.5-.03-20.25.01-4.62.03-9.6-.93-13.8.45-15.5,5.08-30.94,3.28-46.42.78-7.52-1.21-14.86-3.7-22.4-4.6-9.47-1.14-19.06-1.56-28.6-1.72-7.8-.13-15.62.47-23.41.98-3.44.22-6.84,1.01-10.26,1.56-1.14.18-2.29.63-3.41.58-8.5-.43-16.99-1.23-25.49-1.36-6.43-.1-12.88.96-19.31.9-5.26-.05-10.5-1.07-15.76-1.51-3.92-.33-8.02-1.24-11.75-.47-14.13,2.93-28.13-.71-42.21-.26-11.66.37-23.37-1.28-35.07-1.56-9.92-.24-19.87.34-29.8.31-10.26-.03-20.53-.49-30.79-.52-6.09-.01-12.24-.04-18.25.79-19.07,2.64-38.05,5.96-57.13,8.45-7.85,1.02-15.91.34-23.83.94-8.54.64-17.04,1.9-25.56,2.84-3.12.34-6.25.53-9.37.76-9.6.71-19.19,1.79-28.8,1.97-6.3.12-12.62-1.08-18.94-1.66-2.15-.2-4.3-.32-6.6-.49,188.79-30.44,377.81-35.36,567.22-7.16Z"/><path class="cls-1" d="M84.92,446.65c-.56.28-1.12.56-1.69.83-.17-.98-.49-1.95-.49-2.93-.03-25.27-.02-50.54-.02-76.05,11.03,7.49,11.73,21.46,19.35,29.84-1.36,1.33-3.03,2.22-3.44,3.51-1.51,4.72-2.45,9.63-3.91,14.37-.6,1.94-2.02,3.61-2.98,5.44-.53,1.01-.87,2.11-.43,3.59.99-1.44,1.99-2.89,3.23-4.7v9.45c-2.87,4.36-5.34,8.11-7.8,11.86-.57-.46-1.13-.92-1.7-1.38.72,1.64,1.44,3.27,2.15,4.91l.15-.09c-.81.5-1.62,1-2.43,1.49,0,0,0-.14,0-.14Z"/><path class="cls-1" d="M715.52,879.15c4.59-1.94,9.16-3.73,13.62-5.78,12.99-5.97,19.43-16.43,19.5-30.46.19-37.63.07-75.26.22-112.89,0,34.62-.02,69.24.01,103.85.01,9.45.45,18.9.15,28.34-.09,2.72-1.48,5.92-3.31,7.99-9.15,10.36-16.73,12.3-30.19,8.96Z"/><path class="cls-1" d="M748.68,719.29v-29.32c.06,0,.11,0,.17,0v29.24c-.06.03-.11.05-.17.08Z"/><path class="cls-1" d="M139.62,117.39c1.69.35,3.28.68,5.45,1.13-1.66,2.99-3.12,5.63-4.58,8.26-.29-.08-.58-.15-.87-.23v-9.16Z"/><path class="cls-1" d="M31.75,852.96c2.31,4.26,4.37,8.09,6.62,12.25-5.18-2.65-6.23-4.61-6.62-12.25Z"/><path class="cls-1" d="M87.19,445.38c-.15.7-.31,1.41-.46,2.12.2-.74.41-1.47.61-2.21,0,0-.15.09-.15.09Z"/><path class="cls-2" d="M87.35,445.29c-.2.74-.41,1.47-.61,2.21,0,0,.12-.09.12-.09-.65-.21-1.3-.41-1.94-.62.81-.5,1.62-1,2.43-1.49Z"/><path class="cls-1" d="M84.91,446.79l1.94.62c-.64-.25-1.28-.5-1.93-.75,0,0-.01.13-.01.13Z"/><path class="cls-2" d="M529.58,165.54c2.84,3.78,5.52,7.69,8.55,11.3,3.99,4.76,8.54,9.12,9.64,15.57-.71.68-1.42,1.36-2.14,2.04-.37-1.28-.36-2.94-1.18-3.79-7.8-8.11-15.39-16.29-25.32-22.23-6.28-3.76-10.99-10.06-16.61-15-10.51-9.22-21.16-18.29-31.78-27.38-1.34-1.14-2.87-2.05-4.65-3.3,2.49,9.46,10.72,13.03,16.9,18.23,22.28,18.74,42.04,39.86,60.17,62.52,14.95,18.7,29.89,37.46,43.69,57.01,16.82,23.82,27.74,50.74,37.01,78.24,8.57,25.41,17.99,50.42,30.65,74.11,7.94,14.87,12.36,30.79,14.75,47.6,1.9-7.49,3.79-14.97,6-23.69,1.77,7.76,3.94,14.82,4.92,22.05,2.19,16.08-1.79,31.43-7.13,46.4-.7,1.97-3.84,3.06-6.48,4.11,5.1-23.07-3.56-43.3-11.27-63.4-8.09-21.1-17.58-41.67-26.23-62.56-2.86-6.9-5.03-14.09-7.42-21.18-.55-1.64-.72-3.4-.16-5.35,8.04,18.32,16.08,36.65,24.12,54.97.43-.15.85-.3,1.28-.46-.9-2.94-1.61-5.96-2.73-8.81-16.75-42.56-33.68-85.13-57.08-124.54-10.06-16.93-22.94-32.24-35.16-47.8-10.25-13.05-20.9-25.86-32.25-37.95-15.34-16.33-31.28-32.12-47.44-47.65-15.8-15.2-33.47-27.85-54.13-35.84-3.25-1.26-6.69-2.12-9.8-3.66-7.89-3.93-15.41-3.79-22.88,1.01-1.8,1.15-4.8.13-5.73.52-12.49,5.26-24.69,11.19-36.96,16.95.17.54.33,1.09.5,1.63,1.24.38,2.49.76,3.65,1.11-5.56,3.99-10.59,10.06-16.66,11.41-11.11,2.46-16.06,11.55-23.47,17.85-7.58,6.45-14.26,13.96-21.14,21.2-9.98,10.48-19.95,20.99-29.58,31.78-4.28,4.8-7.47,10.55-11.61,15.49-4.96,5.92-10.6,11.25-15.59,17.15-24.55,29.02-42.86,61.71-56.82,96.95-.9,2.27-2.29,4.35-3.42,6.55-4.64,10.48-9.6,20.82-13.9,31.43-5.52,13.61-10.51,27.43-15.73,41.16,4.78-7.85,8.67-15.98,12.5-24.15,3.28-7,6.81-13.9,9.63-21.08,3.03-7.73,5.43-15.71,7.92-23.64.35-1.1-.32-2.52-.51-3.79,1.41-1.2,2.83-2.39,5.02-4.25-3.19,10.84-5.47,21.24-9.29,31.03-6.83,17.51-14.45,34.72-22.02,51.93-4.58,10.42-8.34,21.02-9.71,32.37-1.26,10.41,1.65,20.11,4.89,29.78,5.96,17.79,15.13,33.46,30.89,44.22,17.23,11.75,34.45,23.62,52.44,34.12,27.5,16.04,36.94,40.43,35.63,70.64-.28,6.32-.28,12.66-.47,18.99-.05,1.52-.36,3.02-.55,4.53-.67-.01-1.33-.02-2-.03-.19-5.83-.32-11.66-.61-17.49-.09-1.8-.6-3.58-.91-5.37-.36-2.06-3.02-4.31.57-6.12.31-.15.06-1.76-.19-2.61-1.87-6.38-3.63-12.79-5.76-19.08-3.46-10.18-11.08-17.4-19.24-23.5-15.57-11.62-31.84-22.31-47.78-33.44-2.15-1.5-3.94-3.56-6.16-4.92-2.71-1.64-5.75-2.72-8.55-4.22-1.29-.69-2.49-1.65-3.51-2.71-5.81-6.07-11.3-12.47-17.36-18.28-16.85-16.14-23.63-36.79-24.84-59.06-.82-15.08,2.23-30.06,10.73-43.41,3.07-4.81,3.44-12.2,7.45-15.36,7.44-5.87,8.19-14.5,11.93-21.76,4.08-7.92,6.55-16.69,9.41-25.19,9.11-27.04,19.07-53.72,33.64-78.39,13.5-22.86,29.5-43.94,46.55-64.23,11.67-13.89,23.22-27.91,35.53-41.22,18.38-19.87,38.92-37.33,61.77-51.94,4.74-3.03,10.03-5.23,15.07-7.79.87-.44,1.8-.76,2.7-1.13-.43-.7-.86-1.4-1.3-2.1-1.83.54-3.89.72-5.45,1.69-11.42,7.11-22.93,14.12-34.07,21.66-19.41,13.14-34.62,31.15-52.53,45.96-6.05,5-12.32,10.37-19.24,14.68,11.04-18.29,25.54-33.76,38.75-50.37-9.3,9.06-18.86,17.88-27.84,27.25-9.21,9.61-18.1,19.55-26.67,29.73-8.52,10.12-16.47,20.72-24.79,31.04,8.45-15.15,16.1-30.78,27.91-43.88,11.26-12.48,22.18-25.26,33.16-37.99.92-1.07,1.13-2.74,1.66-4.14-1.37.45-2.89.64-4.08,1.38-6.66,4.15-13.24,8.43-20.46,11.93,1.72-1.94,3.43-3.87,5.15-5.81-.2-.19-.4-.37-.6-.56-3.35,2.96-6.71,5.91-10.06,8.87-.29-.28-.57-.56-.86-.84,5.24-6.37,10.47-12.74,15.71-19.11-.43-.38-.85-.76-1.28-1.15-4.67,5.02-9.34,10.05-14.02,15.07-.56-.48-1.12-.96-1.68-1.44,4.53-5.53,9.06-11.07,13.59-16.6-.21-.24-.43-.48-.64-.73-1.65,1.14-3.3,2.29-5.14,3.57-1.33-3.22.45-5.39,2.7-7.45,6.62-6.04,13.34-11.98,19.79-18.21,3.72-3.6,6.99-7.68,10.45-11.55.54-.61.95-1.36,1.56-1.87,7.66-6.39,14.85-13.5,23.15-18.91,8.45-5.5,18.01-9.3,27.08-13.87.41-.21.74-.59.84-1.21-54.07,22.75-97.23,58.45-127.45,109.52-.56-.5-1.12-1-1.68-1.5,5.39-9.08,10.41-18.39,16.23-27.18,11.65-17.57,24.72-34,42.3-46.1,23.57-16.22,48.67-29.68,75.84-38.79,17.66-5.92,35.62-10.95,54.39-12.45,17.67-1.41,35.01.37,51.87,5.42,23.8,7.13,46.24,17.27,65.87,32.84,2.4,1.9,4,4.77,6.15,7.01,9.03,9.42,18.05,18.85,27.26,28.1,3.38,3.39,7.6,5.96,10.82,9.48,4.15,4.53,7.68,9.64,11.47,14.5-.55.52-1.09,1.04-1.64,1.56-6.38-5.31-12.76-10.62-19.14-15.93-.12.08-.23.17-.35.25l20.91,25.74c-.3.25-.6.5-.91.74-3.59-3.47-7.17-6.93-11.68-11.29.84,2.19,1.27,3.31,2.09,5.43-4.58-3.89-8.42-7.15-12.26-10.41-.25.23-.49.46-.74.69,5.4,4.61,10.79,9.22,16.19,13.83l-2.24,2.37c-6.48-5.48-12.96-10.97-20.33-17.2.68,1.84.8,2.8,1.31,3.47,7.5,9.79,14.7,19.82,22.66,29.23,13.06,15.45,24.89,31.68,34.33,49.59.51.97.96,1.98.82,3.34-3.84-5.06-7.45-10.31-11.56-15.15-12.07-14.21-24.2-28.37-36.65-42.24-2.17-2.42-6.03-3.33-9.1-4.94-.38-5.81-5.89-6.8-8.67-10.36-.33.32-.66.64-.99.96,3.29,3.07,6.58,6.15,9.87,9.22ZM394.61,96.85c18.34,2.72,36.34,11.23,56.37,17.53-12.69-9.17-45.23-18.7-56.37-17.53ZM130.53,470.39c.61-12.03,1.15-22.6,1.68-33.08-3.3,10.35-3.33,20.96-1.68,33.08Z"/><path class="cls-2" d="M381.94,455.33c.73,3.21,1.04,5.73,1.89,8.05,2.03,5.51-2.31,10.77-6.66,13.54-2.64,1.68-5.61,3.34-8.62,3.84-7.25,1.2-10.19,8.11-15.96,11.18-3.97,2.11-7.67,4.75-11.69,6.77-7.22,3.64-15.73,2.05-21.78-3.34-7.69-6.85-9.4-16.35-11.88-25.91-.56.93-.96,1.59-1.61,2.67-4.62-11.46.52-21.61,3.61-32.48-3.54,3.78-6.62,7.06-9.69,10.34-.43-.25-.86-.51-1.29-.76,2.67-20.09,9.93-38.47,21.78-55.16-.32-.25-.64-.49-.95-.74-1.57,1.9-3.24,3.73-4.69,5.72-1.55,2.12-2.89,4.38-5.06,6.3.3-1.15.46-2.36.92-3.45,9.63-22.7,7.28-20.73,29.8-36.09q-1.97-1.3-12.88,2.77c1.75-1.89,2.75-3.02,3.81-4.1,6.97-7.15,13.97-14.29,20.94-21.45,4.99-5.11,9.77-10.54,17.75-11.89-1.63-.38-3.26-.76-6.34-1.48,4.68-2.55,8.43-4.6,12.18-6.64-.06-.26-.13-.51-.19-.77-3.34.9-6.69,1.79-10.03,2.69-.24-.37-.48-.73-.71-1.1,2.54-1.56,5.04-3.19,7.64-4.66,1.44-.82,3.15-1.2,4.49-2.14.72-.51.9-1.78,1.32-2.7-.84.09-1.69.18-2.67.29,6.28-9.6,29.37-9.75,34.65-3.12,3.5,4.39,8.9,6.29,11.99,11.74-3.24-.2-6.04-.37-9.87-.6,5.17,2.36,9.36,4.27,14.78,6.75-3.21.74-4.79,1.11-6.38,1.48,11.69,2.48,17.75,11.77,24.66,19.58,4.91,5.54,9.43,11.34,15.77,15.35.5.32.84.91.85,2.21-4.76-1.8-9.52-3.61-14.28-5.41-.33.41-.67.81-1,1.22,15.72,10.29,29.71,21.97,34.37,41.79-4.13-4.91-7.94-9.46-11.76-14-.41.28-.82.56-1.23.83.97,1.51,2.06,2.96,2.89,4.55,5.55,10.6,11.77,20.93,16.28,31.95,2.84,6.93,3.09,14.92,4.73,23.61-2.42-3.48-4.29-6.16-6.88-9.89-2.05,10.37,1.92,19.51.94,30.13-1.66-3.94-2.78-6.61-3.99-9.49-.3,6.38.1,12.71-1.06,18.74-1.69,8.83-7.97,14.88-15.79,18.37-3.31,1.48-8.02-.17-13.3-.47,1.88-1.48,2.68-2.11,3.26-2.57-7.19-3.54-14-8.68-21.52-10.13-7.92-1.53-14.41-5.46-22.46-8.01,1.73-1.39,2.89-2.32,4.06-3.26q-12.31-8-8.07-15.31c1.35.25,2.77.51,5.4,1-2.08-1.4-3.15-2.13-4.09-2.76,5.59-3.21,11.1-6.12,16.34-9.45,22.03-13.97,29.35-44.61,18.89-66.45-3.59-7.49-9.7-12.49-17.61-14.43-20.05-4.92-40.44-4.06-60.43-.45-14.95,2.7-22.96,14.33-24.28,29.78-1.09,12.85.98,25.36,7.51,36.11,3.49,5.76,7.99,11.82,14.7,15.52,5.81,3.2,11.31,6.54,18.5,5.81Z"/><path class="cls-2" d="M332.09,346.88c4.18-5.75,8.35-11.5,12.53-17.24-.4-.55-.8-1.1-1.2-1.66-12.11,0-24.23.18-36.34-.04-16.32-.3-32.63-.94-48.95-1.36-2.76-.07-4.65-.82-5.72-3.69-1.67-4.54-5.83-3.43-9.61-3.85.55,3.28,1.06,6.26,1.56,9.25-.45.15-.9.29-1.35.44-1.47-3.53-2.95-7.06-4.73-11.32,2.64,0,4.41.02,6.18,0,21.98-.32,43.97-.8,65.95-.91,11.98-.06,23.97.53,35.95.79,2.79.06,5.56-.02,4.84-4.28-35.56-.8-71.04-1.59-105.89-2.38,1.63-2.88,2.81-4.97,3.99-7.06-2.87-.31-5.91-1.26-8.51-.58-.96.25-.9,4.38-1.39,7.25-3.87-.9-2.37-5.45-4.78-9,7.74-.31,14.62-.84,21.49-.81,32.32.16,64.64.47,96.96.73,2.85.02,5.98.49,5.81-4.61-1.96-.27-4-.76-6.04-.78-15.83-.19-31.66-.2-47.49-.43-21.82-.31-43.65-.9-65.47-1.01-4.7-.02-6.75-1.38-6.66-6.06.03-1.44-.52-2.89-.91-4.94,7.61,0,14.91-.04,22.21,0,35.15.23,70.31.49,105.46.73,3.12.02,6.13-.19,5.88-5.14-1.96-.11-3.87-.31-5.79-.32-18.66-.11-37.33-.07-55.99-.31-18.15-.23-36.3-.85-54.46-1.05-4.29-.05-4.59-2.7-5.44-6.19,2.69-.42,5.08-.8,8.37-1.31-6.15-.58-11.47-1.08-16.8-1.58.02-.32.04-.63.06-.95h317.13l.09,1.51c-4.52.34-9.04.67-13.4.99,2.36,1.55,4.72,3.1,7.07,4.65-.11.57-.22,1.14-.33,1.71-2.31.36-4.62,1-6.94,1.03-35.48.47-70.97.86-106.45,1.26-2.97.03-5.93,0-8.98,0-.75,4.15.67,5.17,4.12,5.16,40.99-.08,81.98-.04,122.98-.02,1.63,0,3.26.14,5.04.22.13,4.02.52,7.7-1.62,10.69-.48-.1-.96-.21-1.44-.31v-8.31h-12.3c-.71,4.79,1.96,6.93,6.23,8.51-38.82.57-77.64,1.14-116.28,1.7-.9,4.82,1.4,4.98,4.25,4.96,25.16-.25,50.31-.47,75.47-.61,14.29-.08,28.59-.01,43.4-.01-.52,3.38-.95,6.19-1.39,9l-1.11-.08v-6.83c-2.87,0-5.34-.32-7.69.11-1.71.31-3.23,1.59-4.84,2.44.97,1.32,1.93,2.64,3.37,4.59-1.76.28-3.54.77-5.32.81-30.48.69-60.96,1.27-91.43,2.09-2.52.07-7.22-2.14-7.33,2.25-.11,4.69,4.66,2.45,7.16,2.47,34.31.17,68.63.13,102.95.15.8,0,1.6.14,2.42.22-1.42,6.77-1.94,9.32-11.82,9.44-29.32.36-58.64.82-87.96,1.25-1.31.02-2.63.22-4.48.38-.2,6.33,4.69,9.96,7.31,14.61-.37.36-.74.73-1.11,1.09-1.12-1.5-2.14-3.1-3.37-4.5-11.91-13.52-18.69-29.79-24.93-46.35-1.58-4.2-3.54-8.3-4.71-12.62-1.29-4.75-4.21-6.26-8.75-6.22-10.99.12-21.99.2-32.98.04-4.91-.07-7.22,2.13-8.94,6.63-4.5,11.81-8.98,23.69-14.58,35-4.31,8.72-10.16,16.7-15.62,24.81-1.6,2.37-4.24,4.05-6.4,6.05l-.21-.34ZM244.41,287.51c.84-.43,1.79-.91,3.26-1.65h-12.72c.8,3.22.61,6.71,4.74,6.79,2.13.04,4.27-.89,6.41-1.38-.54-1.2-1.07-2.4-1.68-3.76ZM544.54,324.87c-4.72-4.28-5.28-4.11-7.63,1.77,2.51-.58,4.58-1.06,7.63-1.77Z"/><path class="cls-2" d="M574.07,507.78c3.86-2.44,7.71-4.88,11.57-7.33.35.32.7.63,1.05.95-3.39,4.31-6.42,8.95-10.21,12.86-18.56,19.17-36.7,38.66-51.6,60.94-2.42,3.61-5.56,6.74-9.25,9.52,2.31-4.26,4.63-8.51,6.94-12.77-.34-.18-.67-.36-1.01-.55-4.63,8.2-9.32,16.37-13.89,24.6-10.44,18.76-25.42,33.17-43.04,45.06-.62.42-1.45.54-3.26-.04,1.16-1.74,2.14-3.64,3.53-5.19,3.55-3.97,7.75-7.43,10.84-11.72,9.71-13.48,19.06-27.21,28.46-40.9,2.44-3.55,4.55-7.34,6.86-11.12-.58-.11-1.05-.28-1.11-.19-5.05,7.88-13.63,11.46-20.79,16.64-12.69,9.19-25.78,17.89-39.1,26.16-7.52,4.67-15.83,8.07-24.25,11.15.37-.67.74-1.34,1.38-2.52-23.8,8.61-47.38,12.26-71.87,3.48l22.82,17.4c-.1.2-.19.4-.29.6-1.32-.41-2.63-.81-3.95-1.22-.31.42-.62.84-.94,1.27,5.45,4.21,10.9,8.41,16.7,12.89-.7.45-1.4.9-2.1,1.35,5.07,7.59,5.31,7.61,13.02,2.95,1.87-1.13,3.96-1.9,5.95-2.84.24.48.48.96.72,1.44-3.67,2.12-7.2,4.56-11.08,6.19-1.42.6-3.92-.29-5.47-1.24-15.78-9.7-27.49-23.79-40.29-36.84-10.75-10.97-23.1-20.42-35.17-30.01-3.78-3-9.16-3.88-13.39-6.43-3.5-2.11-6.42-5.21-9.52-7.95-2.95-2.61-5.79-5.33-8.68-8-.34.24-.69.48-1.03.71.55,1.2.95,2.51,1.67,3.59,4.53,6.78,9.33,13.39,13.62,20.33,2.03,3.29,2.91,7.27,4.7,10.73,1.65,3.19,3.48,6.42,5.85,9.07,4.88,5.45,10.18,10.52,15.29,15.77,1.21,1.25,2.34,2.59,3.5,3.88-.36.47-.73.94-1.09,1.41-2.45-1.58-5.1-2.93-7.33-4.78-17.47-14.5-32.06-31.46-43.49-51.12-3.81-6.56-7.82-13.01-12.32-19.25,1.15,3.07,2.3,6.14,3.44,9.21-.44.23-.89.47-1.33.7-1.52-1.88-3.19-3.65-4.55-5.64-12.61-18.49-26.63-35.77-42.55-51.56-4.1-4.07-6.95-9.46-10.01-14.48-.61-1,.48-3.04.89-5.15-1.74-1.83-3.87-4.08-6-6.33.12-.32.25-.64.37-.96,1.35.41,2.82.6,4.02,1.27,27.43,15.37,54.92,30.64,82.18,46.31,7.32,4.21,13.95,9.63,20.81,14.62,1.33.97,2.27,2.49,3.38,3.76-.27.34-.53.67-.8,1.01-2.65-1.49-5.29-2.98-7.94-4.47-.2.17-.4.34-.6.51,1.92,1.5,3.84,2.99,5.77,4.49-.39.43-.79.87-1.18,1.3-1.39-1-2.84-1.92-4.16-3-7.42-6.02-15.43-10.87-24.93-12.9-1.44-.31-2.79-1.07-4.15-1.71-9.43-4.48-18.86-8.99-29.46-14.05,3.02,3.12,5.11,5.6,7.53,7.71,21.08,18.39,42.49,36.43,63.26,55.16,14.28,12.88,30.01,23.37,47.64,30.68,16.82,6.98,34.29,5.83,51.43.62,19.26-5.86,36-16.41,51.35-29.19,24.7-20.56,49.24-41.32,73.84-62.01.38-.32.69-.71,1.47-1.54-2.42,0-4.77-.67-6.32.16-2.23,1.19-3.61,3.97-5.84,5.17-4.19,2.27-8.74,3.86-13.11,5.79-11.49,5.06-22.97,10.16-33.54,14.84.57-.6,1.97-2.05,3.37-3.51-.18-.25-.36-.51-.54-.76-5.3,3.39-10.59,6.78-15.89,10.17l-.54-.65c3.52-3.09,6.98-6.26,10.58-9.26,14.06-11.72,30.37-19.72,46.38-28.29,16.86-9.03,33.39-18.69,50.06-28.08,1.45-.82,2.84-1.86,4.39-2.34.99-.3,3.08,0,3.22.46.34,1.13.31,3.06-.43,3.7-3.48,3.04-7.25,5.76-10.92,8.6.15.23.29.46.44.69Z"/><path class="cls-2" d="M134.66,685.53h25.56v52.66h37.02v-52.57h26.76c0,2.01,0,3.94,0,5.87,0,38.47-.09,76.94.1,115.41.02,4.9-1.14,6.71-6.3,6.63-6.61-.11-13.24.8-20.54,1.32v-49.2h-36.76v53.76c-8.68.98-17.02,1.93-25.83,2.93v-136.81ZM208.94,801.84c.07-.05.14-.09.21-.14-.12.01-.23.02-.35.04-.12-.59-.24-1.18-.36-1.77-.47-.54-.93-1.09-1.4-1.63-.16.22-.33.43-.49.65.61.29,1.23.58,1.84.89.18.66.37,1.32.54,1.96Z"/><path class="cls-2" d="M521.9,717.21c-1.08-1.61-2.46-2.71-2.49-3.83-.18-8.97-.1-17.95-.1-26.85,11.5-2.4,12.32-2.26,16.13,8.09,1.68,4.55,3.7,8.39,7.62,11.33,3.5,2.63,4.9,6.18,4.92,10.82.09,17.15.46,34.3,1.09,51.43.4,10.74,4.6,14.63,15.34,15.4,2.99.21,5.97.51,8.96.67,6.68.35,10.97-3.38,11.05-10.22.32-26.82.45-53.64.65-80.46.02-2.48,0-4.96,0-7.83h27.3c0,2.11,0,4.2,0,6.3-.07,31.82-.23,63.64-.13,95.46.02,5.35-1.63,9.53-4.95,13.61-12.63,15.52-8.52,14.23-30.02,12.39-10.93-.94-21.92-1.23-32.83-2.26-3.08-.29-6.9-1.36-8.85-3.47-5.5-5.95-10.3-12.58-15.2-19.07-1.81-2.4-2.49-5.04,1.01-6-.82-1.92-2.03-3.43-2.05-4.96-.15-17.16-.25-34.32,0-51.48.05-3.16,1.72-6.3,2.54-9.08ZM537.38,785.37s-.09.16-.09.16c.64-.41,1.28-.82,1.92-1.23.79.27,1.58.55,2.37.82,0,0-.34-.02-.34-.02.94.12,1.89.24,2.83.37h.18c-.97-1.85-1.94-3.69-2.91-5.54-.07-.06-.14-.14-.22-.22.21-1.5.38-3,.65-4.49.44-2.48.95-4.94,1.51-7.83-5.67,1.45-7.48,5.18-6.35,11.17-.23.41-.46.83-.69,1.24.03.55.06,1.1.1,1.65l-.22,3.52.09-.14c.39.18.79.36,1.18.54ZM547.39,795.36l-.13.12c-.52-.71-1.04-1.43-1.56-2.14-.17.5-.33,1-.5,1.5.73.17,1.46.35,2.19.52ZM549.67,787.88c-.13.19-.27.37-.4.56.47.28.94.56,1.41.85.07-.13.23-.36.21-.38-.39-.36-.81-.69-1.22-1.03ZM547.94,790.63c-.2-.14-.39-.31-.62-.4-.08-.03-.36.2-.34.25.07.22.21.42.32.63.21-.16.42-.32.64-.49Z"/><path class="cls-2" d="M421.44,685.61c19.75,0,38.9-.14,58.04.15,2.72.04,5.95,1.57,7.99,3.45,5,4.62,9.54,9.76,14.02,14.89.94,1.07,1.19,3.04,1.19,4.59-.01,22.64-.28,45.28-.11,67.92.05,6.48-.79,12.15-6.02,16.56-1.63,1.38-3.05,3.14-4.17,4.96-3.66,5.93-8.85,7.57-15.67,7.31-17.63-.68-35.28-.75-52.93-1.07-.65-.01-1.3-.11-2.35-.21v-118.57ZM447.07,712.15v66.26c6.32,0,12.27-.01,18.22,0,5.95.01,10.75-4.33,10.8-10.46.13-15.96.09-31.93-.11-47.89-.05-4.25-2.64-7.51-6.89-7.78-7.26-.47-14.57-.13-22.02-.13Z"/><path class="cls-2" d="M651.48,771.54v50.05c-9.09-.86-17.59-1.66-26.5-2.51v-133.65c1.84,0,3.58,0,5.32,0,17.49.03,34.98.21,52.47.02,5.91-.06,10.44,2.11,14.9,5.75,8.96,7.32,14.46,15.38,12.99,28.03-1.36,11.67-.16,23.62-.42,35.45-.05,2.19-1.13,4.85-2.63,6.44-14.14,14.91-16.37,15.41-37.33,11.9-6-1-12.16-.99-18.8-1.49ZM652.34,745.69c9.39.59,18.34,1.14,27.28,1.73,2.88.19,3.68-1.2,3.64-3.9-.12-7.82-.15-15.65.02-23.47.08-3.52-1.45-4.68-4.75-4.75-6.15-.13-12.29-.56-18.44-.8-2.58-.1-5.16-.02-7.75-.02v31.2Z"/><path class="cls-2" d="M237.23,746.25c0-12.32-.13-24.65.11-36.97.05-2.45.94-5.29,2.39-7.23,12.4-16.47,12.46-16.42,33.01-16.48,7.66-.02,15.34-.42,22.97.09,3.16.21,6.2,2.34,9.27,3.66.42.18.65.75,1.03,1.07,8.63,7.38,11.92,16.21,11.24,28.01-1.16,19.91-.53,39.95-.23,59.92.08,5.7-1.18,10.42-4.96,14.59-1.56,1.72-2.99,3.58-4.32,5.49-4.13,5.95-9.48,8.34-16.97,8.18-10.44-.22-20.93.78-31.37,1.59-4.52.35-7.71-.74-10.93-4.22-8.39-9.07-13.42-18.74-11.61-31.76,1.18-8.49.22-17.29.22-25.94.05,0,.1,0,.15,0ZM294.26,792.47l-.06-.04c.38-.19.77-.38,1.15-.57,0,0,.05.14.05.14-.42-.2-.84-.41-1.26-.61l.12-.09c0,.39,0,.78,0,1.17ZM261.98,789.12l-.63,2.33c.84-.2,1.67-.39,2.51-.59-.67-.58-1.35-1.17-2.02-1.75,0,0,.14,0,.14,0ZM290.39,745.14h.43c0-8.49.1-16.99-.04-25.48-.08-5.25-2.18-7.18-7.35-7.21-4-.03-7.99,0-11.99.05-5.53.06-7.86,2.46-7.8,7.93.06,6.33.06,12.65.11,18.98.1,11.15.04,22.31.42,33.45.17,4.96,3.01,7.41,7.13,7.22,3.3-.15,6.61-.34,9.9-.59,6.53-.5,9.01-2.87,9.14-9.36.18-8.32.04-16.65.04-24.98ZM265.29,797.92l-.3-.22-.07.31.37-.09Z"/><path class="cls-2" d="M329.51,744.89c0-12.16-.13-24.32.11-36.48.05-2.46,1.34-4.94,2.29-7.32.41-1.03,1.51-1.76,2.16-2.73,6.79-10.22,15.95-14.54,28.43-13.04,8.05.96,16.31-.08,24.46.28,2.57.11,5.12,1.73,7.57,2.89.99.47,1.65,1.62,2.53,2.38,8.5,7.41,12.17,16.15,11.53,27.97-1.09,19.93-.13,39.96-.46,59.95-.06,3.51-1.45,7.54-3.53,10.37-11.21,15.24-11.35,15.14-30.36,15.19-8.16.02-16.32.04-24.49.04-1.33,0-2.75.15-3.96-.26-5.14-1.74-16.4-17.84-16.4-23.28,0-11.99,0-23.99,0-35.98h.13ZM353.85,793.73c.22-.02.44-.04.43-.04-.05.01-.32.07-.59.14-.07-.19-.14-.38-.2-.58.1.18.2.35.36.48ZM352.83,787.67c.14.05.29.11.43.16-.15-.04-.3-.09-.45-.11.03.4.06.79.09,1.19.03,0,.05,0,.08,0-.05-.41-.1-.81-.15-1.22ZM382.21,743.38h.18c0-7.99.05-15.97-.02-23.96-.04-4.76-2.65-7.53-7.28-7.6-3.98-.06-7.97.07-11.95.31-5.13.31-7.16,2.42-7.18,7.55-.04,15.14-.08,30.28.09,45.42.11,10.48,2.03,12.17,12.62,12.16,1.16,0,2.33.03,3.49,0,7.35-.19,9.88-2.59,10-9.92.13-7.98.03-15.97.03-23.96ZM372.83,789.02c-.09.11-.24.22-.25.34,0,.13.12.26.18.4.09-.12.24-.23.25-.35.01-.12-.12-.26-.18-.39Z"/><path class="cls-2" d="M723.69,813.06c3.86,9.61,3.85,19.28,3.29,28.87-.38,6.59-7.86,11.74-14.37,10.84-31.94-4.43-63.83-9.35-95.85-13.11-26.92-3.16-54-5.08-81.02-7.36-61-5.14-122.14-6.13-183.28-4.73-36.61.84-73.19,3.35-109.74,5.71-22.75,1.46-45.45,3.76-68.12,6.19-19.33,2.07-38.6,4.79-57.88,7.36-14.99,2-29.95,4.19-44.92,6.32-5.65.8-10.54-.88-14.78-4.52-3.16-2.72-4.84-5.98-4.76-10.44.49-25.82,2.47-51.78.53-77.43-1.61-21.35-.48-42.56-1.17-63.81-.09-2.78,1.64-5.77,3.01-8.42,2.01-3.9,4.34-7.67,6.76-11.34,1.69-2.57,3.36-5.42,5.74-7.25,10.65-8.19,22.67-11.8,36.29-11.71,41.16.29,82.32,0,123.48-.05,5.34,0,6.75,1.45,6.5,6.28-.14,2.62-1.12,4.07-3.9,4.01-2.33-.05-4.67.01-7,.01-36.49,0-72.99-.02-109.48.03-5.99,0-11.99.53-17.98.53-10.64,0-18.77,4.93-25.63,12.53-1.23,1.36-2.2,3.05-3.63,4.11-8.74,6.48-10.24,15.34-9.61,25.54.62,9.96-1.02,20.11.17,29.96,3.8,31.48.86,62.97,1.31,94.44.11,7.71,7.32,13.4,15.45,12.28,18.63-2.56,37.21-5.48,55.88-7.69,27.91-3.3,55.85-6.51,83.84-9.02,31.48-2.82,63-5.9,94.57-6.94,44.93-1.48,89.93-1.75,134.89-1.46,27.45.18,54.92,1.89,82.31,3.79,28.07,1.94,56.1,4.59,84.07,7.58,27.95,2.99,55.82,6.74,83.72,10.26,5.6.7,11.17,1.71,16.71,2.77,8.51,1.63,13.88-2.68,13.98-11.36.08-7,.2-13.99.31-20.99,0-.44.15-.88.3-1.78Z"/><path class="cls-2" d="M539.74,487.96c7.51-20.16,11.27-36.73,9.77-45.72-2.53,7.04-4.61,12.82-6.69,18.6-.33-.02-.66-.04-.98-.06v-6.41c-.32-.02-.65-.04-.97-.05-.53,1.98-1.07,3.95-1.91,7.07v-14.59c-2.1.6-3.79,1.09-6.36,1.82-2.28,7.02-1.92,16.43-5.97,24.58-.51-.05-1.02-.11-1.53-.16-.22-1.28-.43-2.56-.77-4.55-1.31,3.34-2.4,6.11-3.48,8.89,3.31-16.65,7.94-32.99,1.25-50.22-.39,6.64-.13,12.91-1.3,18.9-1.13,5.8-3.74,11.32-5.7,16.96-.72-.18-1.43-.36-2.15-.54.15-1.83.42-3.66.42-5.48,0-6.11.99-12.5-.47-18.26-1.56-6.13-5.55-11.62-8.32-17.47-.94-1.99-1.39-4.23-2.04-6.35-.57-1.86-.87-3.86-1.73-5.58-3.02-6.02-6.24-11.94-8.53-18.61,3.87,3.9,7.75,7.81,11.62,11.71l1.23-.91c-2.24-4.26-4.48-8.52-6.71-12.78.32-.28.64-.56.95-.84,2.27,2.13,4.54,4.27,7.32,6.89-.19-1.4-.32-2.33-.47-3.46,1.3.07,2.66.15,4.37.25-1.34-3.01-2.55-5.71-3.75-8.4.58-.43,1.16-.86,1.74-1.3,2.91,3.7,5.83,7.39,8.74,11.09l1.45-1.17c-1.06-1.92-2.25-3.78-3.15-5.77-.77-1.7-1.21-3.55-1.79-5.34.61-.47,1.22-.94,1.83-1.41,4.09,3.51,8.19,7.02,12.25,10.5-1.52-3.79-3.16-7.87-4.79-11.94.14-.09.28-.18.42-.27,1.56,2.17,3.12,4.34,4.68,6.5.23-.09.47-.17.7-.26-.26-1.12-.53-2.25-.87-3.67,7.85.03,7.67,7.44,11.62,11.39-1.51-6.2-3.03-12.4-4.54-18.6.4-.16.79-.31,1.19-.47,1.08,1.53,2.16,3.05,3.23,4.58.2-.07.4-.15.6-.22-1.81-4.62-3.63-9.25-5.73-14.61,9.33,5.72,12.58,15.31,17.75,23.32.67-.29,1.34-.59,2-.88-1.6-7.96-3.2-15.91-4.94-24.58,4.1,5.69,7.89,10.96,11.68,16.23.43-.21.87-.42,1.3-.64-2.16-4.97-4.31-9.95-6.47-14.92l.54-.46,7.25,9.13c.55-.27,1.1-.54,1.65-.81-1.51-3.93-3.02-7.85-4.54-11.78l.89-.7c2.76,3.45,5.53,6.9,8.29,10.35l.55-.23c-.35-1.13-.7-2.26-1.06-3.44.52-.05,1.02-.21,1.1-.09,8.65,12.96,13.32,27.28,15.65,42.39-.47.22-.93.44-1.4.66-5.03-5.44-10.07-10.87-15.1-16.31l-1.61.34c16.39,19.71,18.78,41.24,9.18,64.16.96-5.86,2.8-11.75,2.64-17.59-.17-6.34.73-13.45-6.11-18.11-2.17-1.48-2.78-5.18-4.21-7.81-.94-1.72-2.08-3.32-3.59-4.84,1.25,11.13,5.8,21.98,1.79,32.5-.69-3.09-1.55-6.96-2.41-10.84-.2,10.82,2.72,22.04-7.08,31.03-.09-1.39-.17-2.64-.25-3.89-.22-.05-.44-.1-.66-.15-1.62,6.32-2.4,13.04-5.11,18.86-2.7,5.82-7.34,10.74-11.12,16.06-.43-.4-.87-.8-1.3-1.2Z"/><path class="cls-2" d="M233.68,264.05c2.78-7.02,5.43-14.08,8.46-20.99.47-1.07,2.61-1.91,4.03-2,10.79-.66,21.6-1.53,32.4-1.54,81.62-.11,163.25-.05,244.87,0,4.16,0,8.34.87,12.46.57,7.57-.54,11.66,2.94,13.91,9.88,1.56,4.83,3.9,9.4,5.03,14.74-1.04-1.39-2.38-2.66-3.08-4.21-2.19-4.85-3.93-9.91-6.3-14.66-.67-1.35-2.89-2.73-4.4-2.74-15.16,0-30.31.23-45.47.53-3.31.06-6.61.63-11.15,1.08,3,.32,4.76.51,6.52.7.01.19.03.39.04.58-7.66.66-15.32,1.32-22.98,1.97.01.29.02.57.03.86l28.44,1.79c0,.28-.01.55-.02.83h-16.67l-.03.68c8.71,1.27,17.42,2.54,26.55,3.87-2.43.26-4.52.49-7.27.79,6.38.69,12.11,1.31,19.16,2.07-82.39,3.33-163.43,2.51-244.61-.54,9.06-1.78,18.13-3.56,27.19-5.35,0-.36,0-.73,0-1.09h-10.19c0-.42-.01-.83-.02-1.25,9.52-.78,19.04-1.55,28.56-2.33-.01-.12-.03-.24-.04-.36-5.02-.73-10.16-.99-15.04-2.27-18.15-4.75-36.73-.94-54.98-3.11-3.52-.42-5.61,1.21-6.74,4.52-1.61,4.72-3.35,9.4-5.18,14.04-.51,1.3-1.55,2.4-2.35,3.59-.38-.24-.76-.47-1.14-.71Z"/><path class="cls-2" d="M467.76,174.65c-11.56-1.52-23.12-3.05-34.69-4.54-4.53-.59-5.27.36-3.7,4.98-1.59.24-3.12.46-5.48.81,14.46,7.28,29.27,12.23,41.12,22.78-10.86-3.11-21.72-6.21-32.58-9.32,11.62,7.1,24.42,11.9,35.11,20.29-.18.39-.36.78-.55,1.17-8.41-3.13-16.83-6.26-25.24-9.39-.25.56-.5,1.12-.76,1.68,2.53,1.54,5.06,3.08,7.84,4.77-19.4-1.22-38.33-3.47-57.25-3.3-18.86.17-37.7,2.76-56.86,4.31,5.5-2.65,10.83-5.21,16.15-7.78-.1-.28-.2-.56-.3-.83-9.2,3.56-18.4,7.12-27.6,10.68,7.88-10.12,20.22-13,31.16-20.63-10.54,2.72-19.86,5.12-29.17,7.52-.32-.9-.63-1.8-.95-2.71,15.67-7.24,31.33-14.47,47-21.71-3.62.78-7.32,1.58-11.16,2.41-1.21-4.24-4.14-5.79-8.51-4.83-8.45,1.85-16.89,3.73-25.36,5.47-1.03.21-2.22-.37-3.34-.58.72-.9,1.29-2.35,2.2-2.61,11.96-3.41,23.83-7.27,35.98-9.81,34.32-7.17,67.8-1.97,100.8,8.15,2.18.67,4.23,1.74,6.34,2.63-.07.12-.13.24-.2.37Z"/><path class="cls-2" d="M231.65,393.56c1.72-3.22,3.19-6.61,5.22-9.62,4.8-7.14,9.85-14.11,14.81-21.15.66.21,1.32.42,1.97.63-.35,6.91-.7,13.82-1.1,21.65,1.12-1.87,1.87-3.13,2.61-4.38,3.71,3.21,3.92,3.09,12.31-6.09-2.41,4.43-4.82,8.86-7.23,13.29.22.16.44.32.66.48.84-.98,1.64-2,2.53-2.94,1.13-1.2,2.15-2.74,3.56-3.35.74-.32,2.21,1.03,3.03,1.46,1.75-.87,3.66-1.82,5.57-2.78.29.45.58.9.88,1.35-1.17,2.31-2.34,4.62-3.51,6.93.2.17.4.34.6.51,2.49-2.67,4.99-5.35,7.48-8.02.51.25,1.01.51,1.51.76-2.76,6.15-5.52,12.31-8.28,18.46.1.02.19.04.29.07,3.15-4.54,6.29-9.08,9.44-13.63.21.12.43.23.64.35-.41,1.5-.82,3-1.22,4.5.28.24.57.48.85.72.99-1.8,1.97-3.59,2.96-5.39.82.54,1.63,1.09,2.45,1.63-1.78,4.06-3.57,8.12-5.35,12.18.18.12.35.24.53.35,1.07-1.32,2.14-2.65,3.21-3.97.46.13.93.25,1.39.38-8.43,20.07-14.51,40.56-12.54,62.69-6.59-5.61-7.07-6.91-11.69-30.21-3.11,18.57.78,36.27,7.24,53.66-3.84,0-3.45-.09-4.42-3.71-.74-2.79-2.92-5.17-3.93-7.92-2.5-6.8-4.7-13.71-7.2-21.09-.84,1.65-1.48,2.9-2.12,4.14-.41,0-.82.02-1.22.03-.62-3.95-1.23-7.89-1.85-11.84-.3-.12-.61-.25-.91-.37-.83,3.32-1.92,6.59-2.43,9.96-.57,3.77-.63,7.61-.89,11.14-3.8-2.9-8.48-15.5-10.79-29.86-.44.07-.89.15-1.33.22,1.49,8.92,2.52,17.95,4.61,26.74,2.03,8.55,5.15,16.85,7.2,25.5-13.56-14.6-20.66-32.34-25.34-52.11-.28,2.06-.46,3.41-.64,4.75-2.46-7.44-2.43-14.98-.15-22.19,2.24-7.1,5.49-13.88,8.29-20.79.76-1.03,1.53-2.08,2.3-3.12Z"/><path class="cls-2" d="M368.72,580.6c-10.34-12.93-13.12-27.4-12.01-43-.55-.05-1.09-.11-1.64-.16-1.47,7.4-2.93,14.8-4.37,22.06-7.48-13.56.41-29.24,10.53-38.08-.28,1.79-.55,3.58-.94,6.12,3.01-2.72,5.73-5.19,9.28-8.4-1.79,3.82-3.13,6.66-4.47,9.51.25.12.51.23.76.35,2.1-2.93,4.2-5.85,6.62-9.23.97,1.47,1.64,2.48,2.17,3.28,4.37-1.53,8.57-3.01,13.27-4.66-.79,2.57-1.52,4.95-2.25,7.34,3.31-3.35,4.31-10.03,10.79-8.09,4.58,1.37,8.65,4.43,13.15,6.84q.86-.98-.64-7.68c3.38,2.95,6.75,5.91,10.83,9.47-.55-1.96-.88-3.11-1.52-5.39,5.4,2.55,9.83,4.63,14,6.6-.56-1.23-1.39-3.09-2.36-5.23,7.82,4.17,11.53,10.29,9.24,15.63-1.16-1.02-2.2-1.94-3.72-3.27.9,8.9,8.76,17.04,1.9,25.8-1.51-6.97-3.04-14.06-4.57-21.16-.79-.03-1.58-.06-2.38-.09,3.93,14.79-3.43,26.42-10.52,38.86.39-11.97,3.94-23.8-.28-35.16-.45-.04-.91-.09-1.36-.13-1.45,9.41-2.9,18.81-4.56,29.55-1.23-1.99-1.59-2.58-2.07-3.36-2.44,13.11-9.79,23.43-17,34.53-7.84-8.89-12.09-18.83-16.84-28.51-4.85-9.89-7.83-20.15-7.26-31.42-3.98,5.49-3.61,11.74-3.42,17.8.19,6.22,1.02,12.42,1.62,19.28Z"/><path class="cls-2" d="M75.04,735.04c-3.09,2.87-5.2,4.82-8.31,7.71,0-7.67.64-13.98-.14-20.11-1.5-11.79,1.91-20.82,10.91-28.99,9.11-8.28,9.84-9.51,23.52-7.75v140.52c-8.44,1.19-16.79,2.36-25.99,3.66v-95.04Z"/><path class="cls-2" d="M250.51,83.48c-3.71-3.88-7.64-7.58-11.05-11.7-3.39-4.09-6.25-8.6-9.88-13.67,43.3-27.15,90.18-43.39,141.05-47.63,68.08-5.68,130.46,11.12,188.51,48.65-5.78,7.6-11.13,14.65-16.48,21.7-.56-.41-1.12-.82-1.68-1.23,4.3-5.67,8.61-11.34,12.67-16.7-46.18-26.49-94.82-45.29-149.03-45.73,2.6.16,5.2.31,7.8.47,0,.23-.01.45-.02.68-1.07,0-2.13,0-3.2,0-16.6.1-33.36-1.13-49.77.7-16.19,1.8-32.29,5.8-47.96,10.43-25.74,7.61-50.39,18.19-73.91,31.25-.82.46-1.81.63-2.99,1.03,5.67,7.02,11.28,13.96,16.88,20.89-.31.29-.63.58-.94.87Z"/><path class="cls-2" d="M701.33,835.43c0-13.31-.09-26.61.12-39.92.02-1.54,1.43-3.3,2.63-4.55,5.51-5.79,11.3-11.31,16.67-17.22,1.52-1.67,2.78-4.31,2.79-6.52.16-22.65.1-45.31-.11-67.96-.02-2.08-1.06-4.53-2.41-6.16-3.5-4.22-7.34-8.18-11.22-12.07-9.25-9.3-20.63-12.65-33.56-12.58-34.82.18-69.64,0-104.46.02-3.52,0-5.98-.14-5.88-4.92.09-4.25,1.59-5.3,5.57-5.29,36.15.13,72.31.28,108.46.02,13.92-.1,25.44,5.93,35.35,14.22,5.74,4.81,8.74,12.89,12.88,19.56.38.61.13,1.63.13,2.46-.01,24.32-.1,48.65.03,72.97.02,3.8-1.06,6.51-3.94,9.07-6.23,5.52-12.24,11.3-18.06,17.25-1.42,1.45-2.39,3.95-2.48,6.01-.41,10.15-.44,20.32-.64,30.48-.03,1.73-.22,3.45-.34,5.17-.51-.02-1.01-.03-1.52-.05Z"/><path class="cls-2" d="M264.19,64.44c67.65-48.44,190.12-50.34,258.94-1.66-86.06-38.6-171.96-37.92-258.94,1.66Z"/><path class="cls-2" d="M624.09,283.81c-4.25-26.98-8.49-53.96-12.83-81.51,6.68.37,13.55.27,20.22,1.38,2.2.37,4.83,3.59,5.6,6.03,2.64,8.37,5.32,16.85,6.57,25.49,3.04,21.03,5.29,42.17,7.83,63.27.13,1.12.02,2.26-.88,3.58-.52-2.54-1.11-5.07-1.56-7.63-.49-2.77-.85-5.56-1.24-8.18-1.98.95-3.93,2.37-6.09,2.82-3.62.75-6.07.54-7.15-4.67-3.41-16.55-3.99-33.21-4.33-49.94l1.58-.28c1.3,6.39,2.6,12.78,3.9,19.17.27-.01.55-.03.82-.04-.37-7.33-.71-14.67-1.11-22-.08-1.49-.53-2.96-.55-4.45-.22-12.96-7.71-22.14-21.95-22.4,5.4,26.28,10.48,52.53,11.17,79.35Z"/><path class="cls-2" d="M231.65,393.56c-.77,1.04-1.53,2.08-2.29,3.12-4.36,5.63-8.72,11.27-13.17,17.02.17-.99.36-2.03.57-3.26-7.14,7.19-8.68,19.21-5.71,43.3-4.83-5.67-5.29-14.31-4.75-31.59.38-12.01,7.94-20.45,11.27-31.18-5.21,5.86-10.42,11.72-15.48,17.41,4.4-22.73,5.45-28.11,27.93-56.79-1.82,5.14-3.63,10.29-5.45,15.43.32.18.65.37.97.55,1.5-1.16,3-2.33,5.68-4.41-2.13,6.5-3.75,11.46-5.37,16.42.22.11.45.22.67.32,2.84-4.89,5.69-9.79,8.53-14.68.28.07.55.14.83.21-.05.75-.1,1.5-.19,2.76,1.32-.26,2.59-.52,4.11-.82-2.77,8.88-5.46,17.54-8.16,26.2Z"/><path class="cls-2" d="M534.39,627.18c1.68-9.24,3.11-18.54,5.11-27.72,3.02-13.88,14.1-21.33,24.51-28.97,17.29-12.68,34.83-25.04,52.43-37.28,7.23-5.03,14.85-9.5,22.37-14.1,12.51-7.65,20.25-24.98,17.03-38.59-.52-2.21-1.51-4.31-1.92-6.58,8.03,9.86,7.81,35.39-7.44,43.62-32.15,17.36-59.99,40.58-83.59,68.66-3.96,4.71-7.46,10.04-12.19,13.82-8.94,7.16-9.86,18.13-14.53,27.3-.6-.06-1.19-.11-1.79-.17Z"/><path class="cls-2" d="M164.42,285.26c3.47-26.88,6.94-53.76,10.44-80.81-.78.13-1.58.21-2.35.41-15.58,4.2-16.41,5.18-17.83,21.17-.44,4.96-.85,9.93-1.22,14.89-.37,4.97-.67,9.95-.96,14.3,1.31-3.8,2.79-8.09,4.75-13.75.59,2.33,1.09,3.31,1.04,4.26-.64,11.59-1.03,23.22-2.2,34.76-.7,6.91-2.04,7.2-8.23,3.72-.7-.39-1.38-.82-2.6-.53,1.73,1.2,3.46,2.4,5.32,3.69q-3.77,1.69-8.91-2.54c-1.05,7.36-2.1,14.67-3.14,21.98-.34-.04-.68-.08-1.02-.12.62-8.02.79-16.1,1.96-24.04,2.98-20.35,5.57-40.81,9.88-60.89,4.8-22.36,4.1-17.82,21.9-18.63,1.94-.09,3.89-.01,5.99-.01-3.89,27.85-7.69,55.07-11.49,82.29-.44-.06-.89-.11-1.33-.17Z"/><path class="cls-2" d="M554.41,699.44c-.62-18.27-4.27-36.19-.2-54.39,5.42-24.21,19.25-43.28,35.21-60.96,19.89-22.02,42.83-40.45,70.39-52.23,8.99-3.84,18.59-6.25,27.87-9.42,2.34-.8,4.65-1.85,6.78-3.12,13.14-7.8,16.21-21.93,7.03-34.12-3.62-4.8-8.29-8.81-12.31-13.35,8.98,4.63,16.55,10.69,19.95,20.72,3.32,9.79-.32,20.97-9.6,27.2-4.88,3.28-10.47,6.1-16.14,7.51-26.18,6.49-48.4,19.98-68.59,37.35-21.7,18.66-40.12,39.88-51.88,66.31-5.89,13.24-9.19,26.98-8.58,41.62.37,8.95.07,17.92.07,26.88Z"/><path class="cls-2" d="M603.65,148.13c-1.31,2-2.63,3.99-3.8,5.78-7.52-3.34-.43-8.32-1.58-12.89h-6.99c-.22-.37-.44-.74-.66-1.11,1.49-.94,2.97-1.89,5.16-3.27-3.68-1.69-6.31-2.9-9.57-4.4,3.33-.81,6.11-1.48,7.96-1.93-3.89-3.82-7.43-8.82-12.26-11.61-4.53-2.62-10.36-3.26-15.72-4.1-6.63-1.04-12.31-3.46-18.22-9.57,6.4-.52,11.47-1.65,16.42-1.22,24.08,2.09,43.4,24.63,47.33,41.23,2.39,10.08.98,19.36-5,28.75-.77-4.03,2.41-7.65.78-10.84-.61.02-1.22.04-1.83.06.42-1.41.84-2.83,1.69-5.72-2.04,1.84-3.02,2.72-4.28,3.87.46-4.42.89-8.59,1.32-12.77-.25-.09-.49-.17-.74-.26Z"/><path class="cls-2" d="M192.34,129.79c2.96.77,5.52,1.43,8.07,2.09-.07.39-.13.79-.2,1.18-2.05.39-4.1.78-6.7,1.27.52,1.25.91,2.19,1.48,3.56-.87.3-1.83.62-2.98,1.01.26.99.53,2.04.94,3.58-1.25-.58-2.06-.96-3.48-1.62v13.14c-.32.07-.63.14-.95.21-1.16-1.88-2.32-3.76-3.71-6.03-1.84,3.97,2.13,9.31-3.73,13.02.58,2.91,1.42,7.15,2.26,11.4-7.38-9.07-9.53-19.52-5.66-30.01,7.34-19.91,20.89-33.97,42.37-38.32,5.73-1.16,11.96.14,17.96.31.19.81.39,1.61.58,2.42-2.8,1.71-5.88,3.1-8.34,5.21-5.63,4.81-12.46,3.02-18.77,4.1-2.56.44-4.95,1.85-7.4,2.87-.6.25-1.64.86-1.58,1.09,1.97,8.07-5.89,5.68-8.9,8.41-.35.32-.71.63-1.27,1.11Z"/><path class="cls-2" d="M128.08,541.39c.07,1.62.14,3.25.21,4.87-10.71,8.76-20.07,19.43-35.3,21.13,1.16,3.08,1.89,4.99,3.08,8.13-2.73-2.55-4.53-4.24-6.33-5.92-.45.23-.9.46-1.35.7.89,2.4,1.78,4.79,2.82,7.58-3.53-2.01-6.85-3.9-10.17-5.78-.4.45-.81.9-1.21,1.35,1.55,1.99,3.11,3.99,5.48,7.03-4.73-2.17-8.35-3.83-11.98-5.5-.24.41-.47.81-.71,1.22.96,1.17,1.92,2.34,2.81,3.42-3.89-.24-7.59-.47-11.3-.7-.14.43-.27.86-.41,1.29l2.87,3.58c-6.15-3.96-11.14-.3-16.71,2.45,3.45,9.34,6.92,18.74,10.39,28.14-.48.21-.95.42-1.43.64-6.64-11.85-13.28-23.7-20.22-36.08,3.52-1.58,6.25-3.25,9.22-4.07,20.64-5.72,41.34-11.24,61.99-16.94,1.34-.37,2.61-1.53,3.59-2.61,4.51-4.97,8.91-10.05,13.35-15.09l1.29,1.17Z"/><path class="cls-2" d="M732.72,609.64c3.13-7.99,6.26-15.98,9.42-24.06-4.9-1.67-9.4-6.3-15.41-1.96.61-1.01,1.22-2.02,1.91-3.16-4.5-4.54-7.97,1.3-13.44,1.47,2.78-2.06,4.51-3.35,6.53-4.84-5.37-3.72-9.68-.35-14.08,2.24-.26-.39-.52-.79-.79-1.18,1.48-1.66,2.96-3.31,4.44-4.97-.26-.48-.53-.95-.79-1.43-3.33,1.8-6.65,3.61-9.98,5.41-.24-.17-.48-.35-.71-.52,1.64-2,3.27-3.99,4.91-5.99-.27-.5-.55-1.01-.82-1.51-2.67,1.33-5.33,2.66-8.67,4.32,1.35-2.04,2.31-3.49,3.66-5.54-6.69-2.97-13.19-5.85-19.7-8.74.3-.74.6-1.48.89-2.22,24.9,4.89,49.53,10.7,73.71,21.39-6.82,11.27-13.1,21.66-19.39,32.06-.57-.26-1.13-.52-1.7-.78Z"/><path class="cls-2" d="M688.92,513.98c-5.57,1.96-11.08,4.14-16.73,5.83-21.93,6.56-40.77,18.5-58.32,32.83-21.55,17.59-41.04,37.05-55.42,61.08-10.82,18.08-18.96,37.06-17.08,58.91.73,8.45,1.29,16.92,1.88,25.39.09,1.27-.11,2.55-.17,3.92-.55-.19-1.08-.25-1.1-.38-1.82-15.64-5.51-31.19-3.12-47.08,2.63-17.51,10.6-32.9,20.26-47.33,23.11-34.52,52.81-62.1,89.91-80.95,12.31-6.25,26-9.79,39.05-14.57.28.79.56,1.57.85,2.36Z"/><path class="cls-2" d="M350.59,406.23c1.93-6.98,2.99-14.38,6.12-20.77,1.87-3.83,6.54-7.58,10.7-8.78,17.91-5.17,36.1-5.19,54.11.04,6.15,1.79,10.37,5.81,12.02,12.22,1.4,5.43,2.82,10.85,3.27,16.56-.94-2.6-1.88-5.21-2.81-7.81-3.45-9.61-8.76-13.66-18.87-14.1-5.63-.24-11.28-.19-16.93-.19-6.99,0-13.98-.08-20.96.16-15.56.54-19.67,3.84-23.94,18.84-.4,1.41-.72,2.84-1.08,4.26-.54-.14-1.09-.29-1.63-.43Z"/><path class="cls-2" d="M121.36,230.61c-4.34,3.5-4.67,7.41-3.6,11.43,3.5,13.14.41,26.17-.74,39.18-.49,5.54-5.42,3.03-9.03,2.62-.49,1.7-.92,3.22-1.36,4.75-.24.03-.49.06-.73.1-.39-3.01-.78-6.01-1.15-8.88-.87,7.74-1.75,15.63-2.64,23.53-.31-.02-.61-.03-.92-.05.36-7.78.3-15.61,1.17-23.33,1.58-14.03,3.5-28.04,5.69-41.99,1.25-7.94,1.63-7.88,9.49-7.63.99.03,1.98.14,3.81.27Z"/><path class="cls-2" d="M674.57,286.15c-2.95-16.63-4.55-32.76-4.09-49.01.5-.09.99-.18,1.49-.27.6,1.39,1.19,2.77,1.79,4.16.31-.08.62-.16.93-.24-.86-3.47-1.73-6.95-2.57-10.35-.86.13-.38,0,.11,0,8.62-.32,8.83-.35,9.88,8.04,2.45,19.6,4.67,39.24,6.98,58.86-.58.08-1.15.16-1.73.23-.45-2.9-.91-5.8-1.36-8.7-.46-2.93-.92-5.85-1.4-8.88.31,7.78-5.59,5.33-10.05,6.17Z"/><path class="cls-2" d="M469.44,65.05c54.73,21.98,98.33,55.32,123.54,109.43-8.45-10.85-16.48-22.05-25.45-32.45-8.99-10.42-18.33-20.68-28.58-29.83-10.39-9.27-21.73-17.58-33.28-25.39-11.39-7.7-23.56-14.23-36.23-21.77Z"/><path class="cls-2" d="M452.68,333.02c29.83,0,59.66,0,89.49,0,.1.4.2.8.3,1.2-6.31,1.56-12.56,3.99-18.96,4.51-17.53,1.42-35.12,2.39-52.7,2.8-8,.19-11.31-2.18-18.13-8.52Z"/><path class="cls-2" d="M161.51,147.36c-7.26-5.26-7.38-5.33-3.59-11.79,10.26-17.48,23.15-32.87,37.68-46.92.69-.66,1.51-1.19,2.62-2.05,1.7,2.07,3.26,3.97,4.86,5.91-7.76,8.1-15.65,15.85-22.92,24.14-3.16,3.61-5.02,8.35-7.55,12.54-3.66,6.06-7.38,12.09-11.1,18.17Z"/><path class="cls-2" d="M336.94,333.08c-7.5,6.19-14.6,8.82-23.26,8.73-21.17-.23-42.27-.42-62.78-6.63-1.46-.44-2.82-1.22-4.8-2.1h90.84Z"/><path class="cls-2" d="M585.01,93.62c2.14-2.63,3.79-4.67,5.64-6.95,16.64,15.54,31.03,32.58,42.54,51.96.66,1.11.18,3.25-.4,4.65-.68,1.64-2.04,2.99-3.63,5.19-9.65-22.54-26.05-39.45-44.15-54.85Z"/><path class="cls-2" d="M89.3,317.58c-4.97-18.54-5.95-37.31-1.86-56.13,1.92-8.83,6.11-14.06,14.71-19.13-.31,3.91-.51,7.25-.84,10.57-.75,7.61-1.3,15.25-2.47,22.79-.53,3.41-2.32,6.63-3.6,9.9-1.51,3.85-3.09,7.67-4.39,10.89v-9.93c-.11-.01-.23-.03-.34-.04-.14,1.25-.28,2.5-.56,4.93-2.56-12.21-1.73-23.1,1.59-34.89-3.92,5.95-5.49,15.91-4.73,30.73.52,10.12,1.65,20.2,2.5,30.3Z"/><path class="cls-2" d="M699.24,258.38c.73,7.05,1.8,13.74,2,20.45.23,7.61-.2,7.7-7.39,5.81-.29,1.22-.57,2.44-.86,3.66l-.83.09-4.8-44.98c.5-.21,1.01-.42,1.51-.63,5.98,3.26,11.11,7.91,12.3,14.81,1.87,10.9,3.13,21.99,3.46,33.03.24,8.16-1.41,16.39-2.83,24.55,0-18.92,4.11-37.96-2.56-56.8Z"/><path class="cls-2" d="M667.6,221.05c-.6-3.31-1.2-6.62-1.74-9.59-1.79.22-4.09,1.2-5.7.53-1.68-.7-3.35-2.79-3.92-4.61-3.34-10.79-6.28-21.7-9.52-32.51-1.4-4.66.65-7.63,4.03-10.1,12.7,16.57,15.47,36.3,18.37,55.99-.51.1-1.01.2-1.52.3Z"/><path class="cls-2" d="M514.49,627.88c3.72-7.24,7.45-14.49,11.17-21.73-12.18,17.29-27.41,31.49-44.24,44.13,17.37-20.06,33.08-41.61,53.42-59.73.55,9.41-12.03,33.95-20.35,37.33Z"/><path class="cls-2" d="M357.43,504.93c11.47-6.7,22.61-14.28,37.01-14.82,14.61-.55,24.65,8.93,36.43,14.87-8-1.93-15.92-4.56-24.03-5.58-8.17-1.02-16.64-1.28-24.8-.32-8.32.97-16.42,3.82-24.61,5.85Z"/><path class="cls-2" d="M18.92,589.68c3.33-2.14,6.92-4.45,10.97-7.06,5.98,16.73,11.59,32.44,17.2,48.15-.45.24-.91.48-1.36.72-8.74-13.63-17.48-27.25-26.81-41.81Z"/><path class="cls-2" d="M124.33,211.13c3.95-15.01,7.91-30.01,11.92-45.22,5.16,3.25,6.79,7.45,5.46,12.28-2.82,10.2-5.38,20.47-8.45,30.59-.49,1.62-2.92,3.04-4.76,3.72-1.03.38-2.69-.95-4.07-1.52,0,0-.1.16-.1.16Z"/><path class="cls-2" d="M668.43,314.39c-1.9-13.72-3.79-27.43-5.7-41.21-.66,2.21-1.31,4.36-1.95,6.51-.75-.1-1.5-.2-2.25-.29.46-9.49,1.55-18.99,1.18-28.45-.32-8.36-2.22-16.66-3.61-24.95-.11-.67-1.67-1.22-2.64-1.59-1.69-.65-3.45-1.12-5.17-1.66.1-.42.19-.83.29-1.25h9.6c5.93,30.83,9.84,61.58,10.26,92.89Z"/><path class="cls-2" d="M763.73,581.19c4.29,3.3,7.69,5.91,10.26,7.88-8.91,13.3-17.22,25.72-25.53,38.14-.48-.2-.96-.39-1.44-.59,5.42-14.73,10.84-29.46,16.72-45.43Z"/><path class="cls-2" d="M274.55,619.26c-2.83-6.12-5.65-12.24-8.48-18.37.57-.39,1.15-.79,1.72-1.18,14.66,18.27,29.31,36.53,43.97,54.8-.1.14-.19.28-.29.42-3.72-3.38-7.37-6.85-11.18-10.13-3.77-3.26-7.73-6.31-11.53-9.54-.66-.56-.95-1.56-1.41-2.36-4.27-4.55-8.54-9.1-12.81-13.65Z"/><path class="cls-2" d="M142.61,222.05c-3.13,1.99-6.65,3.09-8.12,5.46-1.51,2.44-.99,6.13-1.42,9.26-2.89,21.41-5.79,42.81-8.72,64.22-.4,2.93-.94,5.84-2.43,8.66.49-7.18.68-14.39,1.52-21.53,2.12-18.14,4.53-36.25,6.83-54.38.36-2.8.73-5.59,1.2-8.37.6-3.53,4.85-4.9,11.12-3.33Z"/><path class="cls-2" d="M516.05,519.92c6.46-6.1,41.64-23.82,57-28.73-10.51,9.94-45.44,27.54-57,28.73Z"/><path class="cls-2" d="M204.22,78.73c5.92-5.19,11.63-10.2,17.86-15.66,1.66,2.39,3.13,4.49,4.85,6.96-3.87,3.63-7.66,7.34-11.61,10.86-5.73,5.09-6.23,4.97-11.1-2.16Z"/><path class="cls-2" d="M226.6,497.26c16.47,5.53,32.29,12.41,46.64,22.35-17.65-3.08-32.12-12.75-46.64-22.35Z"/><path class="cls-2" d="M581.59,86.81c-6.09-5.08-10.83-8.69-15.17-12.74-4.06-3.79-3.9-4.94.2-10.37,5.65,4.73,11.56,9.19,16.71,14.4,1.01,1.03-.92,4.96-1.74,8.71Z"/><path class="cls-2" d="M145.96,167.66c-7.9-7.35-7.79-11.81.1-22.23,2.18,2.03,4.45,3.93,6.43,6.1.61.66.92,2.28.53,3.05-2.19,4.37-4.62,8.62-7.07,13.09Z"/><path class="cls-2" d="M98.26,340.09v-10.36c.38-.02.77-.04,1.15-.07,0,2.26-.56,4.71.11,6.75,1.66,5.07,3.74,10.02,5.91,14.91,1.57,3.54,3.53,6.91,4.64,10.77-6.49-7.26-16.85-11.71-16.08-24.07.43-6.93.08-13.91.41-20.98,1.04,7.69,2.08,15.38,3.12,23.06.25,0,.49-.01.74-.02Z"/><path class="cls-2" d="M578.18,530.68c7.68-9.38,19.08-17.7,30.88-22.23-.15,3.98-5.11,9.68-9.74,11.83-7.31,3.41-14.49,7.11-21.14,10.39Z"/><path class="cls-2" d="M381.44,141.77c2.73-.41,4.06-.61,5.4-.82l-.09-.51h-11.36c14.19-3.03,28.35-2.74,42.92.05-5.46,2.77-29.19,3.8-36.86,1.28Z"/><path class="cls-2" d="M372.68,149.75c14.78-4.5,29.7-5.21,44.72,0h-44.72Z"/><path class="cls-2" d="M681.75,359.66c1.71-4.2,3.54-8.35,5.11-12.6,1.53-4.17,2.8-8.43,4.09-12.4.19,1.59.44,3.72.69,5.84l.53.08c.89-7.66,1.78-15.33,2.67-22.99.15.03.3.05.46.08,0,9.01.02,18.02-.04,27.03,0,.77-.31,1.7-.81,2.27-3.97,4.48-8.02,8.89-12.04,13.31-.21-.21-.43-.43-.64-.64Z"/><path class="cls-2" d="M642.68,164.18q-8.13-12,1.04-18.31c7.53,10.99,7.35,14.08-1.04,18.31Z"/><path class="cls-2" d="M208.42,527.61c-9.75-5.15-20.26-9.05-28.48-18.01,13.23,1.42,20.42,10.46,28.48,18.01Z"/><path class="cls-2" d="M274.49,350.48c-12.19-1.36-23.77-4.45-33.51-11.57-7.26-5.31-9.38-14.25-11.25-22.71-1.14-5.13-1.51-10.42-1.72-15.75,1.56,6.97,3.01,13.98,4.72,20.92,2.74,11.09,9.05,19.01,20.36,22.41,7.08,2.13,14.1,4.41,21.39,6.7Z"/><path class="cls-2" d="M134.24,253.06c-.09,17.88-5.34,35.23-7.22,52.94,1.54-17.73,3.07-35.46,4.61-53.19.87.08,1.74.17,2.61.25Z"/><path class="cls-2" d="M659.48,387.42v-41.94c.69,13.98,4.55,27.96,0,41.94Z"/><path class="cls-2" d="M563.7,203.67c8.68,12.31,17.35,24.61,26.03,36.92-.45.31-.91.63-1.36.94-8.64-12.33-17.29-24.66-25.93-36.98.42-.29.84-.58,1.26-.88Z"/><path class="cls-2" d="M130.45,388.01c-3.04-4.69-3.27-17.54,0-36.6v36.6Z"/><path class="cls-2" d="M406.2,653.41c6.73-3.72,13.04-7.2,19.34-10.69.26.34.53.68.79,1.03-5.47,4.19-10.95,8.38-16.42,12.57-.08-.52-.17-1.04-.25-1.56-.99-.38-1.97-.77-3.46-1.35Z"/><path class="cls-2" d="M124.43,210.97c-.86,3.44-1.72,6.87-2.64,10.57-1.8-4.44,2.67-27.66,6.7-36.8-1.3,8.26-2.74,17.33-4.17,26.39,0,0,.11-.17.11-.17Z"/><path class="cls-2" d="M543.49,341.58c9.22-7.61,14.25-17.53,15.69-29.4-.44,13.83-5.66,26.05-15.79,29.29l.1.11Z"/><path class="cls-2" d="M406.95,152.88h-25.22c0-.37,0-.75,0-1.12h25.25l-.03,1.12Z"/><path class="cls-2" d="M295,395.09l-9.84,25.52-1.86-.76,10.66-25.18,1.04.43Z"/><path class="cls-2" d="M274.55,619.26c4.27,4.55,8.54,9.1,12.81,13.65-.27.18-.56.53-.81.5-3.81-.42-13.39-10.84-13.36-14.49,0-.12.28-.36.32-.33.36.2.69.44,1.03.67Z"/><path class="cls-2" d="M492.05,351.14c-10.28-.35-21.53,1.91-31.92-2.07,10.62.69,21.67,1.4,31.92,2.07Z"/><path class="cls-2" d="M607.14,278.31c-3.97-8.64-7.94-17.29-11.91-25.93.43-.2.86-.4,1.29-.61,3.96,8.6,7.92,17.19,11.87,25.79-.42.25-.83.5-1.25.75Z"/><path class="cls-2" d="M671.25,371.64v-23.62l.32-.06c.52,7.86,1.05,15.72,1.57,23.58-.63.03-1.26.07-1.89.1Z"/><path class="cls-2" d="M543.39,341.47c-7.24,2.95-14.48,5.9-21.72,8.85-.24-.64-.48-1.29-.72-1.93,7.51-2.27,15.02-4.54,22.53-6.81,0,0-.1-.11-.1-.11Z"/><path class="cls-2" d="M120.84,348.35c-.36,7.79-.72,15.59-1.08,23.38-.56-.04-1.12-.08-1.67-.12.64-7.78,1.27-15.55,1.91-23.33.28.02.56.04.84.06Z"/><path class="cls-2" d="M205.93,231.7l12.58-18.16c.45.3.9.61,1.34.91-4.2,6.05-8.4,12.1-12.6,18.14l-1.32-.89Z"/><path class="cls-1" d="M529.58,165.54c-3.29-3.07-6.58-6.15-9.87-9.22.33-.32.66-.64.99-.96,2.78,3.56,8.28,4.55,8.67,10.36,0,0,.21-.17.21-.17Z"/><path class="cls-2" d="M195.39,251.61c-2.95,5.69-5.9,11.38-8.85,17.07-.47-.25-.94-.49-1.41-.74,3.12-5.61,6.25-11.22,9.37-16.83.22.12.43.24.88.49Z"/><path class="cls-2" d="M301.04,488.21c2.19,3.35,4.39,6.71,6.58,10.06-.45.29-.9.58-1.35.88-2.29-3.3-4.57-6.6-6.86-9.9.54-.34,1.08-.69,1.62-1.03Z"/><path class="cls-2" d="M369.58,433.83c3.33,1.58,6.66,3.16,10,4.74-.24.55-.48,1.1-.72,1.65-3.36-1.54-6.72-3.08-10.08-4.61.27-.59.53-1.19.8-1.78Z"/><path class="cls-2" d="M419.6,435.42c-2.97,1.43-5.94,2.85-8.91,4.28-.26-.51-.52-1.03-.78-1.54,2.91-1.5,5.81-2.99,8.72-4.49.32.58.64,1.17.96,1.75Z"/><path class="cls-2" d="M246.67,651.59l.7,14.65c-.27.02-.53.05-.8.07-.4-4.89-.81-9.77-1.21-14.66.44-.02.88-.04,1.31-.06Z"/><path class="cls-2" d="M362.61,416.32c2.5-1.32,5.83-3.07,8.67-4.57.32,4.07-3.14,5.98-8.67,4.57Z"/><path class="cls-1" d="M168.53,344.62c.2,1.27.86,2.69.51,3.79-2.5,7.93-4.89,15.91-7.92,23.64-2.82,7.18-6.35,14.09-9.63,21.08-3.83,8.17-7.72,16.3-12.5,24.15,5.22-13.73,10.21-27.55,15.73-41.16,4.3-10.6,9.26-20.94,13.9-31.43-.02-.03-.09-.07-.09-.07Z"/><path class="cls-1" d="M394.61,96.85c11.14-1.17,43.68,8.36,56.37,17.53-20.02-6.3-38.02-14.81-56.37-17.53Z"/><path class="cls-1" d="M130.53,470.39c-1.65-12.12-1.61-22.73,1.68-33.08-.53,10.49-1.07,21.05-1.68,33.08Z"/><path class="cls-1" d="M244.41,287.51c.61,1.36,1.15,2.56,1.68,3.76-2.14.49-4.28,1.42-6.41,1.38-4.13-.08-3.94-3.57-4.74-6.79h12.72c-1.47.75-2.42,1.23-3.26,1.65Z"/><path class="cls-1" d="M544.54,324.87c-3.04.7-5.12,1.19-7.63,1.77,2.34-5.87,2.9-6.05,7.63-1.77Z"/><path class="cls-1" d="M208.4,799.85c-.61-.29-1.23-.58-1.84-.87.16-.22.33-.43.49-.65.47.54.93,1.09,1.4,1.63,0,0-.04-.12-.04-.12Z"/><path class="cls-1" d="M208.44,799.97c.12.59.24,1.18.36,1.77l.15.12c-.18-.66-.37-1.32-.55-1.99,0-.01.05.1.05.1Z"/><path class="cls-1" d="M208.8,801.74c.12-.01.23-.02.35-.04-.07.05-.14.09-.21.15,0,0-.14-.11-.14-.11Z"/><path class="cls-1" d="M536.93,778.56c-1.13-5.99.68-9.72,6.35-11.17-.56,2.89-1.07,5.35-1.51,7.83-.27,1.49-.44,2.99-.65,4.49-.97-.49-1.93-.99-2.9-1.48,0,0,.26,0,.26,0l-1.54.34Z"/><path class="cls-1" d="M539.22,784.3c-.64.41-1.28.82-1.92,1.23-.39-.19-.78-.37-1.18-.56.07-1.17.14-2.34.22-3.52,0,0-.14-.13-.14-.13.38.38.76.77,1.13,1.15l-.15-.18c.4.39.79.79,1.19,1.18l-.17-.18c.39.39.78.77,1.17,1.16l-.15-.16Z"/><path class="cls-1" d="M544.08,785.47c-.94-.12-1.89-.24-2.83-.37-.03-.93-.06-1.86-.09-2.8.06-.79.12-1.58.19-2.37.97,1.84,1.94,3.69,2.92,5.53.1-.27.19-.53.28-.8l-.86.05c.13.25.26.5.4.75Z"/><path class="cls-2" d="M541.34,779.93c-.06.79-.12,1.58-.19,2.37,0,0,.2.14.2.14-.39-.34-.77-.67-1.16-1.01-.33-.38-.66-.75-.99-1.13l.13.17c-.38-.75-.75-1.5-1.12-2.25.97.49,1.93.99,2.9,1.48.08.09.16.16.22.22Z"/><path class="cls-2" d="M536.24,779.8c.23-.41.46-.83.69-1.24.51-.11,1.03-.23,1.55-.34.29.75.58,1.5.86,2.25,0,0-.13-.17-.13-.17.04.38.09.77.13,1.15-.71,0-1.42,0-2.13,0-.33-.55-.65-1.1-.98-1.65Z"/><path class="cls-1" d="M537.21,781.45c.71,0,1.42,0,2.13,0,0,0-.15-.15-.15-.15.39.39.77.77,1.16,1.16l-.15-.17c.46.94.93,1.88,1.39,2.82-.79-.27-1.58-.55-2.37-.82,0,0,.15.16.15.16-.39-.39-.78-.77-1.17-1.16l.17.18c-.4-.39-.79-.79-1.19-1.18,0,0,.15.18.15.18,0-.39,0-.77,0-1.16l-.12.14Z"/><path class="cls-1" d="M549.67,787.88c.41.34.83.67,1.22,1.03.03.02-.13.25-.21.38-.47-.28-.94-.56-1.41-.85.13-.19.27-.37.4-.56Z"/><path class="cls-2" d="M541.58,785.12c-.46-.94-.93-1.88-1.39-2.82.39.05.78.1,1.16.15,0,0-.2-.14-.2-.14.03.93.06,1.86.09,2.8,0,0,.34.02.34.02Z"/><path class="cls-2" d="M544.08,785.47c-.13-.25-.26-.5-.4-.75l.86-.05c-.09.27-.18.53-.28.8,0,0-.18,0-.18,0Z"/><path class="cls-1" d="M547.94,790.64c-.21.16-.42.32-.64.48-.11-.21-.25-.41-.32-.63-.02-.05.26-.28.34-.25.22.08.41.26.62.4Z"/><path class="cls-2" d="M545.2,794.83c.17-.5.33-1,.5-1.5.52.71,1.04,1.43,1.56,2.14,0,0,.13-.12.13-.12-.73-.17-1.46-.35-2.19-.52Z"/><path class="cls-1" d="M547.26,795.48c-.52-.71-1.04-1.43-1.56-2.14.52.71,1.04,1.43,1.56,2.14Z"/><path class="cls-1" d="M545.2,794.83c.73.17,1.46.35,2.19.52-.73-.17-1.46-.35-2.19-.52Z"/><path class="cls-2" d="M536.12,784.97c.39.18.78.37,1.18.56,0,0,.09-.16.09-.16-.39-.18-.79-.36-1.18-.54l-.09.14Z"/><path class="cls-1" d="M536.2,784.83c.39.18.79.36,1.18.54-.39-.18-.79-.36-1.18-.54Z"/><path class="cls-1" d="M536.24,779.8c.33.55.65,1.1.98,1.65,0,0,.12-.14.12-.14-.38,0-.76,0-1.14,0,0,0,.14.13.14.13-.03-.55-.06-1.1-.1-1.65Z"/><path class="cls-1" d="M447.07,712.15c7.45,0,14.76-.34,22.02.13,4.25.27,6.84,3.53,6.89,7.78.19,15.96.24,31.93.11,47.89-.05,6.12-4.86,10.47-10.8,10.46-5.95-.01-11.89,0-18.22,0v-66.26Z"/><path class="cls-1" d="M652.34,745.69v-31.2c2.59,0,5.18-.08,7.75.02,6.15.23,12.29.66,18.44.8,3.31.07,4.83,1.23,4.75,4.75-.17,7.82-.14,15.64-.02,23.47.04,2.71-.76,4.1-3.64,3.9-8.95-.59-17.9-1.14-27.28-1.73Z"/><path class="cls-1" d="M290.39,745.14c0,8.33.13,16.65-.04,24.98-.14,6.49-2.61,8.86-9.14,9.36-3.3.25-6.6.43-9.9.59-4.11.19-6.96-2.25-7.13-7.22-.38-11.14-.32-22.3-.42-33.45-.06-6.33-.05-12.65-.11-18.98-.05-5.46,2.27-7.87,7.8-7.93,4-.04,7.99-.07,11.99-.05,5.16.03,7.27,1.96,7.35,7.21.13,8.49.04,16.99.04,25.48h-.43Z"/><path class="cls-1" d="M261.84,789.11c.67.58,1.35,1.17,2.02,1.75-.84.2-1.67.39-2.51.59l-.15.06c.21-.8.42-1.6.64-2.4Z"/><path class="cls-1" d="M294.14,791.39c.42.2.84.41,1.26.61-.42-.2-.84-.41-1.26-.61Z"/><path class="cls-1" d="M261.35,791.45c.21-.78.42-1.55.63-2.33-.26.8-.52,1.59-.78,2.39,0,0,.15-.06.15-.06Z"/><path class="cls-2" d="M261.2,791.51c.26-.79.52-1.59.78-2.39,0,0-.14-.01-.14-.01-.21.8-.42,1.6-.64,2.4Z"/><polygon class="cls-1" points="265.29 797.92 264.92 798.01 264.99 797.7 265.29 797.92"/><path class="cls-2" d="M294.14,791.39c.42.2.84.41,1.26.61,0,0-.05-.14-.05-.14-.38.19-.77.38-1.15.57,0,0,.06.04.06.04,0-.39,0-.78,0-1.17l-.12.09Z"/><path class="cls-1" d="M294.2,792.43c.38-.19.77-.38,1.15-.57-.38.19-.77.38-1.15.57Z"/><path class="cls-1" d="M294.26,791.3c0,.39,0,.78,0,1.17,0-.39,0-.78,0-1.17Z"/><path class="cls-1" d="M382.21,743.38c0,7.99.1,15.97-.03,23.96-.12,7.33-2.65,9.73-10,9.92-1.16.03-2.33,0-3.49,0-10.59,0-12.51-1.68-12.62-12.16-.17-15.14-.12-30.28-.09-45.42.01-5.13,2.05-7.24,7.18-7.55,3.98-.24,7.97-.38,11.95-.31,4.63.07,7.24,2.84,7.28,7.6.07,7.99.02,15.97.02,23.96h-.18Z"/><path class="cls-1" d="M372.83,789.02c.07.13.2.27.18.39-.01.12-.16.23-.25.35-.07-.13-.19-.27-.18-.4,0-.12.16-.23.25-.34Z"/><path class="cls-1" d="M352.81,787.69c.15.04.3.09.45.13-.14-.05-.29-.11-.43-.16l-.02.03Z"/><path class="cls-1" d="M353.8,793.78c-.1-.18-.2-.35-.3-.53.07.19.14.38.2.58l.1-.05Z"/><path class="cls-1" d="M352.83,787.67c.05.41.1.81.15,1.22-.03,0-.05,0-.08,0-.03-.4-.06-.79-.09-1.19,0,0,.02-.04.02-.04Z"/><path class="cls-1" d="M353.7,793.83c.27-.06.54-.13.59-.14,0,0-.21.02-.46.06-.03.02-.13.07-.13.07Z"/><path class="cls-1" d="M539.34,780.48c-.29-.75-.58-1.5-.86-2.25,0,0-.26,0-.26,0,.37.75.75,1.5,1.12,2.25Z"/><path class="cls-2" d="M538.19,783.3c.39.39.78.77,1.17,1.16-.39-.39-.78-.77-1.17-1.16Z"/><path class="cls-2" d="M537.18,782.29c.4.39.79.79,1.19,1.18-.4-.39-.79-.79-1.19-1.18Z"/><path class="cls-2" d="M536.19,781.32c.38,0,.76,0,1.14,0,0,.39,0,.77,0,1.16-.38-.38-.76-.77-1.13-1.15Z"/><path class="cls-1" d="M539.34,781.46c-.04-.38-.09-.77-.13-1.15.33.38.66.75.99,1.13,0,0,.14-.12.14-.12-.38,0-.77,0-1.15-.01,0,0,.15.15.15.15Z"/><path class="cls-1" d="M541.35,782.45c-.39-.05-.78-.1-1.16-.15,0,0,.15.16.15.16,0-.38,0-.76,0-1.14,0,0-.14.12-.14.12.39.34.77.67,1.16,1.01Z"/><path class="cls-2" d="M540.33,781.32c0,.38,0,.76,0,1.14-.39-.39-.77-.77-1.16-1.16.38,0,.77,0,1.15.01Z"/></svg>